<svg xmlns="http://www.w3.org/2000/svg" xmlns:xlink="http://www.w3.org/1999/xlink" xmlns:lucid="lucid" width="1176.96" height="1848.46"><g transform="translate(-160 -152.1968848399806)" lucid:page-tab-id="0_0"><path d="M0 0h1500v2000H0z" fill="#fff"/><path d="M180 178.2a6 6 0 0 1 6-6h1124.96a6 6 0 0 1 6 6v1796.46a6 6 0 0 1-6 6H186a6 6 0 0 1-6-6z" fill="#b2d6ef"/><path d="M201.12 172.2h6.05m12.1 0h6.04m12.1 0h6.06m12.1 0h6.04m12.1 0h6.05m12.1 0h6.04m12.1 0h6.04m12.1 0h6.04m12.1 0h6.05m12.1 0h6.04m12.1 0h6.04m12.1 0h6.06m12.1 0h6.04m12.1 0h6.05m12.1 0h6.04m12.1 0h6.04m12.1 0h6.04m12.1 0h6.05m12.1 0h6.04m12.1 0h6.05m12.1 0h6.04m12.1 0h6.05m12.1 0h6.05m12.1 0h6.04m12.1 0h6.04m12.1 0h6.04m12.1 0h6.05m12.1 0h6.04m12.1 0h6.05m12.1 0h6.04m12.1 0h6.05m12.1 0h6.05m12.1 0h6.04m12.1 0h6.04m12.1 0h6.04m12.1 0h6.05m12.1 0h6.04m12.1 0h6.05m12.1 0h6.04m12.1 0h6.05m12.1 0h6.05m12.1 0h6.05m12.1 0h6.04m12.1 0h6.04m12.1 0h6.05m12.1 0h6.04m12.1 0h6.05m12.1 0h6.04m12.1 0h6.05m12.1 0h6.05m12.1 0h6.05m12.1 0h6.04m12.1 0h6.05m12.08 0h6.05m12.1 0h6.05m12.1 0h6.04m12.1 0h6.05m12.1 0h6.04m12.1 0h6.05m12.1 0h6.05m12.1 0h6.04m12.1 0h3.02l.94.07.92.22.87.35.8.5.7.6.62.72.5.8.35.87.22.92.06.94v3m0 11.97v6m0 11.96v6m0 11.97v6m0 11.96v6m0 11.97V271m0 12v5.98m0 11.97v6m0 11.97v6m0 11.96v6m0 11.97v6m0 11.96v6m0 11.98v6m0 11.96v6m0 11.97v6m0 11.97v6m0 11.97v6m0 11.96v6m0 11.97v5.98m0 11.98v6m0 11.97v5.98m0 11.98v6m0 11.96v6m0 11.97v5.98m0 11.97v6m0 11.97v6m0 11.96v6m0 11.97v6m0 11.96v6m0 11.98v6m0 11.96v6m0 11.97v6m0 11.97v6m0 11.96v6m0 11.97v6m0 11.97v5.98m0 11.98v6m0 11.96v5.98m0 11.98v6m0 11.96v6m0 11.97v5.98m0 11.97v6m0 11.97v6m0 11.96v6m0 11.97v5.98m0 11.98v6m0 11.98v5.98m0 11.98v6m0 11.97v6m0 11.97v6m0 11.96v6m0 11.97v6m0 11.96v6m0 11.97v6m0 11.96v5.98m0 11.98v5.98m0 11.98v6m0 11.97v5.97m0 11.98v6m0 11.96v6m0 11.98v6m0 11.97v5.98m0 11.98v6m0 11.97v6m0 11.97v6m0 11.96v6m0 11.97v6m0 11.96v6m0 11.97v6m0 11.96v6m0 11.97v5.98m0 12v5.98m0 11.98v5.98m0 11.98v6m0 11.97v5.97m0 11.98v6m0 11.96v6m0 11.98v6m0 11.96v6m0 11.97v6m0 11.97v6m0 11.97v6m0 11.96v6m0 11.97v6m0 11.96v6m0 11.97v5.98m0 11.98v6m0 11.96v6m0 11.97v5.98m0 11.97v6m0 11.97v6m0 11.96v6m0 11.97v6m0 11.96v6m0 11.98v5.98m0 11.98v6m0 11.97v6m0 11.97v6m0 11.97v5.98m0 11.98v6m0 11.96v3l-.07.94-.23.9-.36.88-.48.8-.6.72-.73.6-.8.5-.88.37-.92.22-.94.06h-3.02m-12.1 0h-6.04m-12.1 0h-6.05m-12.1 0h-6.04m-12.1 0h-6.04m-12.1 0h-6.04m-12.1 0h-6.05m-12.1 0h-6.04m-12.1 0h-6.05m-12.1 0h-6.04m-12.1 0h-6.05m-12.1 0h-6.05m-12.1 0h-6.05m-12.1 0h-6.04m-12.1 0h-6.05m-12.08 0h-6.05m-12.1 0h-6.04m-12.1 0h-6.05m-12.1 0h-6.04m-12.1 0h-6.05m-12.1 0h-6.05m-12.1 0h-6.05m-12.1 0h-6.04m-12.1 0h-6.05m-12.08 0h-6.05m-12.1 0h-6.04m-12.1 0h-6.05m-12.1 0h-6.04m-12.1 0h-6.05m-12.1 0h-6.05m-12.1 0h-6.05m-12.1 0h-6.04m-12.1 0h-6.05m-12.08 0h-6.05m-12.1 0h-6.05m-12.1 0h-6.04m-12.1 0h-6.04m-12.1 0h-6.05m-12.1 0h-6.05m-12.1 0h-6.05m-12.1 0h-6.04m-12.1 0H564m-12.08 0h-6.05m-12.1 0h-6.05m-12.1 0h-6.04m-12.1 0h-6.05m-12.1 0h-6.04m-12.1 0h-6.06m-12.1 0H437m-12.1 0h-6.04m-12.1 0h-6.05m-12.1 0h-6.03m-12.1 0h-6.05m-12.1 0h-6.04m-12.1 0h-6.05m-12.1 0H310m-12.1 0h-6.06m-12.1 0h-6.04m-12.1 0h-6.05m-12.1 0h-6.04m-12.1 0h-6.04m-12.1 0h-6.04m-12.1 0H186l-.94-.08-.9-.2-.88-.38-.8-.5-.72-.6-.6-.7-.5-.82-.37-.87-.23-.9-.07-.94v-3m0-11.97v-6m0-11.98v-5.98m0-11.98v-6m0-11.96v-6m0-11.97v-6m0-11.96v-6m0-11.97v-6m0-11.96v-6m0-11.97v-6m0-11.96v-5.98m0-11.98v-6m0-11.96v-6m0-11.97v-5.97m0-11.98v-6m0-11.97v-5.98m0-11.98v-6m0-11.96v-6m0-11.97v-6m0-11.97v-6m0-11.97v-6m0-11.96v-6m0-11.97v-6m0-11.96v-6m0-11.97v-6m0-11.96v-6m0-11.97v-5.98m0-12v-5.98m0-11.98v-5.98m0-11.98v-6m0-11.97v-5.97m0-11.98v-6m0-11.96v-6m0-11.98v-6m0-11.96v-6m0-11.97v-6m0-11.97v-6m0-11.97v-6m0-11.96v-6m0-11.97v-5.98m0-11.98v-6m0-11.97v-5.98m0-11.98v-6m0-11.97v-5.98m0-12v-5.98m0-11.98v-5.98m0-11.98v-6m0-11.96v-6m0-11.97v-6m0-11.96v-6m0-11.98v-6m0-11.96v-6m0-11.97v-6m0-11.97v-6m0-11.97v-5.98m0-11.98v-6m0-11.97v-5.98m0-11.98v-6m0-11.96v-5.98m0-11.98v-6m0-11.96v-6m0-11.97v-5.98m0-11.97v-6m0-11.97v-6m0-11.96v-6m0-11.97v-6m0-11.96v-6m0-11.98v-6m0-11.96v-6m0-11.97v-6m0-11.97v-6m0-11.97v-5.98m0-11.98v-6m0-11.96v-6m0-11.97v-6m0-11.96v-5.98m0-11.98v-6m0-11.96v-6m0-11.97v-5.98m0-11.97v-6m0-11.97v-6m0-11.96v-6m0-11.97v-5.98m0-11.98v-6m0-11.98v-5.98m0-11.98v-6m0-11.96v-6m0-11.97v-6m0-11.96v-6m0-11.97v-6m0-11.96v-6m0-11.97v-6m0-11.96v-5.98m0-11.98v-6m0-11.96v-6m0-11.97v-5.97m0-11.98v-6m0-11.97v-5.98m0-11.98v-6m0-11.96v-6m0-11.97v-3l.07-.94.22-.92.35-.87.5-.8.6-.72.72-.6.8-.5.88-.36.9-.23.95-.07h3.02" stroke="#5e5e5e" stroke-width="3" fill="none"/><use xlink:href="#a" transform="matrix(1,0,0,1,185,177.1968848399806) translate(518.5308641975308 17.77777777777778)"/><path d="M450.86 472.4h-81.3v-2h81.3zm146.32 0H516.7v-2h80.48z" stroke="#000" stroke-width=".05"/><path d="M369.6 472.4h-1.03v-2h1.02z"/><path d="M369.62 472.44h-1.08v-2.05h1.08zm-1.03-2v1.95h.97v-1.96zM599 471.4l-18.67 11.06-1.02-1.73 15.77-9.32-15.76-9.3 1.03-1.73z" stroke="#000" stroke-width=".05"/><use xlink:href="#b" transform="matrix(1,0,0,1,450.85831358139205,460.6142761681457) translate(0.005000000000002558 14.4)"/><path d="M207.57 416.4a5 5 0 0 1 5-5h150a5 5 0 0 1 5 5v110a5 5 0 0 1-5 5h-150a5 5 0 0 1-5-5z" stroke="#000" stroke-width="2" fill="#ced4db"/><use xlink:href="#c" transform="matrix(1,0,0,1,219.5666271627842,423.4142761681457) translate(37.05 41.4)"/><use xlink:href="#d" transform="matrix(1,0,0,1,219.5666271627842,423.4142761681457) translate(28.599999999999994 63)"/><path d="M680 582.5v-33.7" stroke="#3a414a" fill="none"/><path d="M680.5 583h-1v-.5h1z" stroke="#3a414a" stroke-width=".05" fill="#3a414a"/><path d="M680 534.03l4.63 14.27h-9.26z" stroke="#3a414a" fill="#fff"/><path d="M600 416.4a5 5 0 0 1 5-5h150a5 5 0 0 1 5 5v110a5 5 0 0 1-5 5H605a5 5 0 0 1-5-5z" stroke="#000" stroke-width="2" fill="#ced4db"/><use xlink:href="#e" transform="matrix(1,0,0,1,612,423.4142761681457) translate(37.05 50.4)"/><path d="M207.57 589a5 5 0 0 1 5-5h150a5 5 0 0 1 5 5v110a5 5 0 0 1-5 5h-150a5 5 0 0 1-5-5z" stroke="#000" stroke-width="2" fill="#ced4db"/><use xlink:href="#f" transform="matrix(1,0,0,1,219.56662716278424,596.0000000000001) translate(42.55 41.4)"/><use xlink:href="#g" transform="matrix(1,0,0,1,219.56662716278424,596.0000000000001) translate(26.525 63)"/><path d="M605.33 589a5 5 0 0 1 5-5h150a5 5 0 0 1 5 5v110a5 5 0 0 1-5 5h-150a5 5 0 0 1-5-5z" stroke="#000" stroke-width="2" fill="#ced4db"/><use xlink:href="#h" transform="matrix(1,0,0,1,617.3333333333334,596.0000000000001) translate(42.55 50.4)"/><path d="M287.57 582.5v-33.7" stroke="#3a414a" fill="none"/><path d="M288.07 583h-1v-.5h1z" stroke="#3a414a" stroke-width=".05" fill="#3a414a"/><path d="M287.57 534.03l4.63 14.27h-9.27z" stroke="#3a414a" fill="#fff"/><path d="M207.57 754.78a5 5 0 0 1 5-5h150a5 5 0 0 1 5 5v110a5 5 0 0 1-5 5h-150a5 5 0 0 1-5-5z" stroke="#000" stroke-width="2" fill="#fff"/><use xlink:href="#i" transform="matrix(1,0,0,1,219.5666271627842,761.7771467468064) translate(34.05 50.4)"/><path d="M287.57 748.28v-26.9" stroke="#3a414a" fill="none"/><path d="M288.07 748.78h-1v-.52h1z" stroke="#3a414a" stroke-width=".05" fill="#3a414a"/><path d="M287.57 706.62l4.63 14.26h-9.27z" stroke="#3a414a" fill="#fff"/><path d="M282.67 920.55a5 5 0 0 1 5-5h150a5 5 0 0 1 5 5v110a5 5 0 0 1-5 5h-150a5 5 0 0 1-5-5z" stroke="#000" stroke-width="2" fill="#fff"/><use xlink:href="#j" transform="matrix(1,0,0,1,294.6666666666667,927.5542934936126) translate(18.049999999999997 41.4)"/><use xlink:href="#k" transform="matrix(1,0,0,1,294.6666666666667,927.5542934936126) translate(34.05 63)"/><path d="M282.67 1064.55a5 5 0 0 1 5-5h150a5 5 0 0 1 5 5v110a5 5 0 0 1-5 5h-150a5 5 0 0 1-5-5z" stroke="#000" stroke-width="2" fill="#fff"/><use xlink:href="#l" transform="matrix(1,0,0,1,294.6666666666667,1071.5542934936125) translate(46.574999999999996 41.4)"/><use xlink:href="#k" transform="matrix(1,0,0,1,294.6666666666667,1071.5542934936125) translate(34.05 63)"/><path d="M282.67 1208.55a5 5 0 0 1 5-5h150a5 5 0 0 1 5 5v110a5 5 0 0 1-5 5h-150a5 5 0 0 1-5-5z" stroke="#000" stroke-width="2" fill="#fff"/><use xlink:href="#m" transform="matrix(1,0,0,1,294.6666666666667,1215.5542934936125) translate(51.4 41.4)"/><use xlink:href="#k" transform="matrix(1,0,0,1,294.6666666666667,1215.5542934936125) translate(34.05 63)"/><path d="M281.17 975.55h-29.84a6 6 0 0 1-6-6v-82.4" stroke="#3a414a" fill="none"/><path d="M281.67 976.05h-.52v-1h.52z" stroke="#3a414a" stroke-width=".05" fill="#3a414a"/><path d="M245.33 872.4l4.64 14.26h-9.27z" stroke="#3a414a" fill="#fff"/><path d="M281.17 1119.55h-29.84a6 6 0 0 1-6-6v-226.4" stroke="#3a414a" fill="none"/><path d="M281.67 1120.05h-.52v-1h.52z" stroke="#3a414a" stroke-width=".05" fill="#3a414a"/><path d="M245.33 872.4l4.64 14.26h-9.27z" stroke="#3a414a" fill="#fff"/><path d="M281.17 1263.55h-29.84a6 6 0 0 1-6-6v-370.4" stroke="#3a414a" fill="none"/><path d="M281.67 1264.05h-.52v-1h.52z" stroke="#3a414a" stroke-width=".05" fill="#3a414a"/><path d="M245.33 872.4l4.64 14.26h-9.27z" stroke="#3a414a" fill="#fff"/><path d="M671.33 754.78a5 5 0 0 1 5-5h150a5 5 0 0 1 5 5v110a5 5 0 0 1-5 5h-150a5 5 0 0 1-5-5z" stroke="#000" stroke-width="2" fill="#fff"/><use xlink:href="#n" transform="matrix(1,0,0,1,683.3333333333335,761.7771467468064) translate(47.5 41.4)"/><use xlink:href="#o" transform="matrix(1,0,0,1,683.3333333333335,761.7771467468064) translate(42.55 63)"/><path d="M669.83 809.78h-21.16a6 6 0 0 1-6-6v-82.4" stroke="#3a414a" fill="none"/><path d="M670.33 810.28h-.5v-1h.5z" stroke="#3a414a" stroke-width=".05" fill="#3a414a"/><path d="M642.67 706.62l4.63 14.26h-9.27z" stroke="#3a414a" fill="#fff"/><path d="M740.67 908.1a5 5 0 0 1 5-5h150a5 5 0 0 1 5 5v110a5 5 0 0 1-5 5h-150a5 5 0 0 1-5-5z" stroke="#000" stroke-width="2" fill="#fff"/><use xlink:href="#p" transform="matrix(1,0,0,1,752.6666666666667,915.1104800801397) translate(55.5 41.4)"/><use xlink:href="#o" transform="matrix(1,0,0,1,752.6666666666667,915.1104800801397) translate(42.55 63)"/><path d="M740.67 1052.1a5 5 0 0 1 5-5h150a5 5 0 0 1 5 5v110a5 5 0 0 1-5 5h-150a5 5 0 0 1-5-5z" stroke="#000" stroke-width="2" fill="#fff"/><use xlink:href="#q" transform="matrix(1,0,0,1,752.6666666666667,1059.1104800801395) translate(46.525 41.4)"/><use xlink:href="#o" transform="matrix(1,0,0,1,752.6666666666667,1059.1104800801395) translate(42.55 63)"/><path d="M740.67 1370.6a5 5 0 0 1 5-5h150a5 5 0 0 1 5 5v110a5 5 0 0 1-5 5h-150a5 5 0 0 1-5-5z" stroke="#000" stroke-width="2" fill="#fff"/><use xlink:href="#r" transform="matrix(1,0,0,1,752.6666666666667,1377.5999991033432) translate(44.375 41.4)"/><use xlink:href="#o" transform="matrix(1,0,0,1,752.6666666666667,1377.5999991033432) translate(42.55 63)"/><path d="M740.67 1513.05a5 5 0 0 1 5-5h150a5 5 0 0 1 5 5v110a5 5 0 0 1-5 5h-150a5 5 0 0 1-5-5z" stroke="#000" stroke-width="2" fill="#fff"/><use xlink:href="#s" transform="matrix(1,0,0,1,752.6666666666667,1520.0500437335122) translate(30.525 41.4)"/><use xlink:href="#o" transform="matrix(1,0,0,1,752.6666666666667,1520.0500437335122) translate(42.55 63)"/><path d="M739.17 963.1h-28.5a6 6 0 0 1-6-6v-69.94" stroke="#3a414a" fill="none"/><path d="M739.67 963.6h-.52v-1h.52z" stroke="#3a414a" stroke-width=".05" fill="#3a414a"/><path d="M704.67 872.4l4.63 14.26h-9.27z" stroke="#3a414a" fill="#fff"/><path d="M739.17 1107.1h-28.5a6 6 0 0 1-6-6V887.17" stroke="#3a414a" fill="none"/><path d="M739.67 1107.6h-.52v-1h.52z" stroke="#3a414a" stroke-width=".05" fill="#3a414a"/><path d="M704.67 872.4l4.63 14.26h-9.27z" stroke="#3a414a" fill="#fff"/><path d="M739.17 1425.6h-28.5a6 6 0 0 1-6-6V887.16" stroke="#3a414a" fill="none"/><path d="M739.67 1426.1h-.52v-1h.52z" stroke="#3a414a" stroke-width=".05" fill="#3a414a"/><path d="M704.67 872.4l4.63 14.26h-9.27z" stroke="#3a414a" fill="#fff"/><path d="M739.17 1568.05h-28.5a6 6 0 0 1-6-6v-674.9" stroke="#3a414a" fill="none"/><path d="M739.67 1568.55h-.52v-1h.52z" stroke="#3a414a" stroke-width=".05" fill="#3a414a"/><path d="M704.67 872.4l4.63 14.26h-9.27z" stroke="#3a414a" fill="#fff"/><path d="M830.43 1228.15a5 5 0 0 1 5-5h150a5 5 0 0 1 5 5v110a5 5 0 0 1-5 5h-150a5 5 0 0 1-5-5z" stroke="#000" stroke-width="2" fill="#fff"/><use xlink:href="#t" transform="matrix(1,0,0,1,842.4333728372158,1235.1499544731741) translate(21.549999999999997 41.4)"/><use xlink:href="#o" transform="matrix(1,0,0,1,842.4333728372158,1235.1499544731741) translate(42.55 63)"/><path d="M1006.33 1228.15a5 5 0 0 1 5-5h150a5 5 0 0 1 5 5v110a5 5 0 0 1-5 5h-150a5 5 0 0 1-5-5z" stroke="#000" stroke-width="2" fill="#fff"/><use xlink:href="#u" transform="matrix(1,0,0,1,1018.3306014620653,1235.1499544731741) translate(5.924999999999997 41.4)"/><use xlink:href="#o" transform="matrix(1,0,0,1,1018.3306014620653,1235.1499544731741) translate(42.55 63)"/><path d="M910.43 1221.65v-20.52a6 6 0 0 0-6-6H784a6 6 0 0 1-6-6v-4.64" stroke="#3a414a" fill="none"/><path d="M910.93 1222.15h-1v-.5h1z" stroke="#3a414a" stroke-width=".05" fill="#3a414a"/><path d="M778 1169.73l4.63 14.26h-9.26z" stroke="#3a414a" fill="#fff"/><path d="M1086.33 1221.65v-31.84a6 6 0 0 0-6-6H778.68" stroke="#3a414a" fill="none"/><path d="M1086.83 1222.15h-1v-.5h1z" stroke="#3a414a" stroke-width=".05" fill="#3a414a"/><path d="M778.07 1169.73l5.25 14.05-9.26.4z" stroke="#3a414a" fill="#fff"/><path d="M670.43 1660.9a5 5 0 0 1 5-5h150a5 5 0 0 1 5 5v110a5 5 0 0 1-5 5h-150a5 5 0 0 1-5-5z" stroke="#000" stroke-width="2" fill="#fff"/><use xlink:href="#v" transform="matrix(1,0,0,1,682.4333728372158,1667.9023801035269) translate(28.049999999999997 41.4)"/><use xlink:href="#o" transform="matrix(1,0,0,1,682.4333728372158,1667.9023801035269) translate(42.55 63)"/><path d="M917.5 1837.3a5 5 0 0 1 5-5h150a5 5 0 0 1 5 5v110a5 5 0 0 1-5 5h-150a5 5 0 0 1-5-5z" stroke="#000" stroke-width="2" fill="#fff"/><use xlink:href="#w" transform="matrix(1,0,0,1,929.4932502255701,1844.3018451503613) translate(27.525 41.4)"/><use xlink:href="#o" transform="matrix(1,0,0,1,929.4932502255701,1844.3018451503613) translate(42.55 63)"/><path d="M1094.32 1837.3a5 5 0 0 1 5-5h150a5 5 0 0 1 5 5v110a5 5 0 0 1-5 5h-150a5 5 0 0 1-5-5z" stroke="#000" stroke-width="2" fill="#fff"/><use xlink:href="#x" transform="matrix(1,0,0,1,1106.3198337844738,1844.3018451503613) translate(38.025 41.4)"/><use xlink:href="#o" transform="matrix(1,0,0,1,1106.3198337844738,1844.3018451503613) translate(42.55 63)"/><path d="M668.93 1715.9h-20.26a6 6 0 0 1-6-6V721.38" stroke="#3a414a" fill="none"/><path d="M669.43 1716.4h-.5v-1h.5z" stroke="#3a414a" stroke-width=".05" fill="#3a414a"/><path d="M642.67 706.62l4.63 14.26h-9.27z" stroke="#3a414a" fill="#fff"/><path d="M997.5 1830.8v-20.7a6 6 0 0 0-6-6H709.7a6 6 0 0 1-6-6v-4.8" stroke="#3a414a" fill="none"/><path d="M998 1831.3h-1v-.5h1z" stroke="#3a414a" stroke-width=".05" fill="#3a414a"/><path d="M703.7 1778.52l4.65 14.27h-9.27z" stroke="#3a414a" fill="#fff"/><path d="M1174.32 1830.8v-20.7a6 6 0 0 0-6-6h-458.6a6 6 0 0 1-6-6v-4.8" stroke="#3a414a" fill="none"/><path d="M1174.82 1831.3h-1v-.5h1z" stroke="#3a414a" stroke-width=".05" fill="#3a414a"/><path d="M703.7 1778.52l4.65 14.27h-9.27z" stroke="#3a414a" fill="#fff"/><path d="M282.67 1352.55a5 5 0 0 1 5-5h150a5 5 0 0 1 5 5v110a5 5 0 0 1-5 5h-150a5 5 0 0 1-5-5z" stroke="#000" stroke-width="2" fill="#fff"/><use xlink:href="#y" transform="matrix(1,0,0,1,294.6666666666667,1359.5542934936125) translate(31.225 41.4)"/><use xlink:href="#k" transform="matrix(1,0,0,1,294.6666666666667,1359.5542934936125) translate(34.05 63)"/><path d="M281.17 1407.55h-29.84a6 6 0 0 1-6-6v-514.4" stroke="#3a414a" fill="none"/><path d="M281.67 1408.05h-.52v-1h.52z" stroke="#3a414a" stroke-width=".05" fill="#3a414a"/><path d="M245.33 872.4l4.64 14.26h-9.27z" stroke="#3a414a" fill="#fff"/><path d="M992.43 416.4a5 5 0 0 1 5-5h150a5 5 0 0 1 5 5v110a5 5 0 0 1-5 5h-150a5 5 0 0 1-5-5z" stroke="#000" stroke-width="2" fill="#ced4db"/><use xlink:href="#z" transform="matrix(1,0,0,1,1004.4333728372158,423.4142761681457) translate(28.549999999999997 50.4)"/><path d="M821.77 472.83l-59.77.15v-2l59.77-.15zm167.85-.4l-58.95.13v-2l58.94-.14z" stroke="#000" stroke-width=".05"/><path d="M762.03 472.98H761v-2h1.02z"/><path d="M762.05 473h-1.07v-2.04h1.07zm-1.02-2v1.96h.97V471zM991.43 471.4l-18.64 11.1-1.03-1.72 15.73-9.36-15.78-9.28 1.02-1.72z" stroke="#000" stroke-width=".05"/><use xlink:href="#A" transform="matrix(1,0,0,1,821.7666866769753,450.0984804014053) translate(0.005000000000002558 14.4)"/><use xlink:href="#B" transform="matrix(1,0,0,1,821.7666866769753,450.0984804014053) translate(34.005 14.4)"/><use xlink:href="#C" transform="matrix(1,0,0,1,821.7666866769753,450.0984804014053) translate(34.455000000000005 36)"/><path d="M912.5 782.13l-.07.84-.2.84-.33.8-.45.74-.56.66-.67.56-.73.45-.8.34-.84.2-.84.07h-74.2v-1H907l.72-.05.7-.16.64-.28.6-.37.54-.46.46-.54.37-.6.28-.66.16-.7.06-.7v-62.83h1zm-50.42-83.96h-63.06l-.72.05-.7.17-.64.26-.6.37-.54.46-.46.52-.37.6-.28.66-.16.68-.06.73v45.17h-1v-45.22l.07-.84.2-.83.33-.8.45-.74.56-.65.67-.56.73-.46.8-.33.84-.2.84-.06h63.1z" stroke="#000" stroke-width=".05"/><path d="M832.85 787.6h-.52v-1h.52z"/><path d="M832.87 787.63h-.56v-1.04h.57zm-.5-1v.96h.45v-.97zM804.6 730.84L794 748.78l-10.6-17.94.85-.5L794 746.8l9.75-16.47z" stroke="#000" stroke-width=".05"/><use xlink:href="#D" transform="matrix(1,0,0,1,862.075,676.0666882222159) translate(0.005000000000002558 14.4)"/><use xlink:href="#E" transform="matrix(1,0,0,1,862.075,676.0666882222159) translate(27.955000000000005 14.4)"/><use xlink:href="#F" transform="matrix(1,0,0,1,862.075,676.0666882222159) translate(29.930000000000007 36)"/><path d="M1094.32 651.56a6 6 0 0 1 6-6h188a6 6 0 0 1 6 6v92.22a6 6 0 0 1-6 6h-188a6 6 0 0 1-6-6z" stroke="#000" stroke-opacity="0" fill="#fff" fill-opacity="0"/><use xlink:href="#G" transform="matrix(1,0,0,1,1099.3198337844738,650.5562296976256) translate(5.586419753086432 26.68402777777778)"/><use xlink:href="#H" transform="matrix(1,0,0,1,1099.3198337844738,650.5562296976256) translate(62.37654320987656 26.68402777777778)"/><use xlink:href="#I" transform="matrix(1,0,0,1,1099.3198337844738,650.5562296976256) translate(142.5 26.68402777777778)"/><use xlink:href="#J" transform="matrix(1,0,0,1,1099.3198337844738,650.5562296976256) translate(11.759259259259267 53.35069444444445)"/><use xlink:href="#K" transform="matrix(1,0,0,1,1099.3198337844738,650.5562296976256) translate(48.796296296296305 53.35069444444445)"/><use xlink:href="#L" transform="matrix(1,0,0,1,1099.3198337844738,650.5562296976256) translate(127.68518518518519 53.35069444444445)"/><use xlink:href="#M" transform="matrix(1,0,0,1,1099.3198337844738,650.5562296976256) translate(29.629629629629633 80.01736111111111)"/><use xlink:href="#N" transform="matrix(1,0,0,1,1099.3198337844738,650.5562296976256) translate(86.41975308641976 80.01736111111111)"/><path d="M1093.82 698.17h-5.04v-1h5.04zm-10.08 0h-10.08v-1h10.08zm-15.13 0h-10.07v-1h10.1zm-15.1 0h-10.1v-1h10.1zm-15.13 0h-10.08v-1h10.07zm-15.12 0h-10.1v-1h10.1zm-15.13 0h-10.08v-1h10.08zm-15.12 0h-10.08v-1H993zm-15.12 0h-10.1v-1h10.1zm-15.13 0h-.83v-1h.83z" stroke="#3a414a" stroke-width=".05" fill="#3a414a"/><path d="M1094.32 698.17h-.5v-1h.5z" fill="#3a414a"/><path d="M1094.35 698.2h-.57v-1.06h.57zm-.52-1v.94h.47v-.95z" stroke="#3a414a" stroke-width=".05" fill="#3a414a"/><path fill="#3a414a"/><path stroke="#3a414a" stroke-width=".05" fill="#3a414a"/><path d="M740.67 1837.3a5 5 0 0 1 5-5h150a5 5 0 0 1 5 5v110a5 5 0 0 1-5 5h-150a5 5 0 0 1-5-5z" stroke="#000" stroke-width="2" fill="#fff"/><use xlink:href="#O" transform="matrix(1,0,0,1,752.6666666666667,1844.3018451503613) translate(36.075 41.4)"/><use xlink:href="#o" transform="matrix(1,0,0,1,752.6666666666667,1844.3018451503613) translate(42.55 63)"/><path d="M820.67 1830.8v-20.7a6 6 0 0 0-6-6H709.7a6 6 0 0 1-6-6v-4.8" stroke="#3a414a" fill="none"/><path d="M821.17 1831.3h-1v-.5h1z" stroke="#3a414a" stroke-width=".05" fill="#3a414a"/><path d="M703.7 1778.52l4.65 14.27h-9.27z" stroke="#3a414a" fill="#fff"/><path d="M1252.5 1710.92l-.07.84-.2.84-.33.8-.45.74-.56.65-.67.55-.73.45-.8.34-.84.2-.84.06h-415.1v-1H1247l.72-.06.7-.16.64-.27.6-.36.54-.46.46-.53.37-.6.28-.66.16-.7.06-.72v-413.32h1zm-4.64-876.24l.84.2.8.33.73.46.66.56.55.66.45.73.33.8.2.85.07.84v414.26h-1V840.13l-.06-.72-.16-.68-.27-.65-.36-.6-.46-.54-.54-.46-.6-.37-.65-.27-.7-.16-.72-.06H833.24v-1h413.78z" stroke="#000" stroke-width=".05"/><path d="M831.95 1716.4h-.52v-1h.52z"/><path d="M831.97 1716.43h-.56v-1.05h.57zm-.5-1v.95h.45v-.95zM850.8 825.36l-16.5 9.75 16.5 9.76-.52.86-17.95-10.6 17.95-10.62z" stroke="#000" stroke-width=".05"/><g><use xlink:href="#D" transform="matrix(1,0,0,1,1202.075,1254.3564289762744) translate(0.005000000000002558 14.4)"/><use xlink:href="#E" transform="matrix(1,0,0,1,1202.075,1254.3564289762744) translate(27.955000000000005 14.4)"/><use xlink:href="#P" transform="matrix(1,0,0,1,1202.075,1254.3564289762744) translate(36.43000000000001 36)"/></g><path d="M970.67 999.13a6 6 0 0 1 6-6h208a6 6 0 0 1 6 6v82.67a6 6 0 0 1-6 6h-208a6 6 0 0 1-6-6z" stroke="#000" stroke-opacity="0" fill="#fff" fill-opacity="0"/><g><use xlink:href="#Q" transform="matrix(1,0,0,1,975.6666666666667,998.1301957211077) translate(15.617283950617292 20.43402777777778)"/><use xlink:href="#R" transform="matrix(1,0,0,1,975.6666666666667,998.1301957211077) translate(120.43209876543212 20.43402777777778)"/><use xlink:href="#S" transform="matrix(1,0,0,1,975.6666666666667,998.1301957211077) translate(2.654320987654316 47.10069444444444)"/><use xlink:href="#K" transform="matrix(1,0,0,1,975.6666666666667,998.1301957211077) translate(56.91358024691358 47.10069444444444)"/><use xlink:href="#T" transform="matrix(1,0,0,1,975.6666666666667,998.1301957211077) translate(135.80246913580248 47.10069444444444)"/><use xlink:href="#U" transform="matrix(1,0,0,1,975.6666666666667,998.1301957211077) translate(160.49382716049382 47.10069444444444)"/><use xlink:href="#V" transform="matrix(1,0,0,1,975.6666666666667,998.1301957211077) translate(23.580246913580254 73.76736111111111)"/><use xlink:href="#M" transform="matrix(1,0,0,1,975.6666666666667,998.1301957211077) translate(66.79012345679013 73.76736111111111)"/><use xlink:href="#W" transform="matrix(1,0,0,1,975.6666666666667,998.1301957211077) translate(123.58024691358025 73.76736111111111)"/></g><path d="M1240.52 1254.36h-1.38l-2.07-2.17.73-.7zm-6.28-6.58l-.72.7-7.1-7.45.7-.7zm-10.66-11.16l-.73.7-7.1-7.45.72-.7zm-10.67-11.16l-.7.7-7.12-7.45.72-.68zm-10.66-11.16l-.72.7-7.1-7.45.7-.7zm-10.66-11.16l-.72.7-7.1-7.45.7-.7zm-10.66-11.16l-.73.7-7.12-7.45.73-.7zm-10.67-11.16l-.72.7-7.1-7.45.7-.7zm-10.66-11.16l-.74.7-7.1-7.45.7-.68zm-10.68-11.16l-.72.7-7.1-7.45.7-.7zm-10.67-11.16l-.72.7-7.1-7.45.7-.7zm-10.66-11.16l-.73.7-7.1-7.45.7-.7zm-10.68-11.16l-.72.7-7.1-7.45.7-.7zm-10.66-11.17l-.72.7-7.1-7.44.7-.7zm-10.67-11.16l-.73.68-7.1-7.44.7-.7zm-10.67-11.17l-.72.7-3.55-3.73.72-.7z" stroke="#3a414a" stroke-width=".05" fill="#3a414a"/><path stroke="#3a414a" stroke-width=".05" fill="#3a414a"/><path d="M1081.38 1087.82l-.72.7-.7-.72h1.4z" fill="#3a414a"/><path d="M1081.42 1087.82l-.76.73-.74-.78h1.45zm-1.4 0l.64.66.7-.66z" stroke="#3a414a" stroke-width=".05" fill="#3a414a"/><path d="M287.57 582.5V568a6 6 0 0 1 6-6H543.4a6 6 0 0 0 6-6v-42a6 6 0 0 1 6-6h27.22" stroke="#3a414a" fill="none"/><path d="M288.07 583h-1v-.5h1z" stroke="#3a414a" stroke-width=".05" fill="#3a414a"/><path d="M597.38 508l-14.26 4.63v-9.26z" stroke="#3a414a" fill="#fff"/><path d="M600 229.83a5 5 0 0 1 5-5h150a5 5 0 0 1 5 5v110a5 5 0 0 1-5 5H605a5 5 0 0 1-5-5z" stroke="#000" stroke-width="2" fill="#ced4db"/><g><use xlink:href="#X" transform="matrix(1,0,0,1,612,236.82855233629135) translate(12.074999999999996 50.4)"/><use xlink:href="#Y" transform="matrix(1,0,0,1,612,236.82855233629135) translate(71.975 50.4)"/></g><path d="M287.57 409.9v-25.78a6 6 0 0 1 6-6H674a6 6 0 0 0 6-6v-9.9" stroke="#3a414a" fill="none"/><path d="M288.07 410.4h-1v-.5h1z" stroke="#3a414a" stroke-width=".05" fill="#3a414a"/><path d="M680 347.45l4.63 14.26h-9.26z" stroke="#3a414a" fill="#fff"/><path d="M680 409.9v-47.7" stroke="#3a414a" fill="none"/><path d="M680.5 410.4h-1v-.5h1z" stroke="#3a414a" stroke-width=".05" fill="#3a414a"/><path d="M680 347.45l4.63 14.26h-9.26z" stroke="#3a414a" fill="#fff"/><path d="M1072.43 409.9v-25.78a6 6 0 0 0-6-6H686a6 6 0 0 1-6-6v-9.9" stroke="#3a414a" fill="none"/><path d="M1072.93 410.4h-1v-.5h1z" stroke="#3a414a" stroke-width=".05" fill="#3a414a"/><path d="M680 347.45l4.63 14.26h-9.26z" stroke="#3a414a" fill="#fff"/><defs><path fill="#333" d="M185-189c-5-48-123-54-124 2 14 75 158 14 163 119 3 78-121 87-175 55-17-10-28-26-33-46l33-7c5 56 141 63 141-1 0-78-155-14-162-118-5-82 145-84 179-34 5 7 8 16 11 25" id="Z"/><path fill="#333" d="M115-194c55 1 70 41 70 98S169 2 115 4C84 4 66-9 55-30l1 105H24l-1-265h31l2 30c10-21 28-34 59-34zm-8 174c40 0 45-34 45-75s-6-73-45-74c-42 0-51 32-51 76 0 43 10 73 51 73" id="aa"/><path fill="#333" d="M141-36C126-15 110 5 73 4 37 3 15-17 15-53c-1-64 63-63 125-63 3-35-9-54-41-54-24 1-41 7-42 31l-33-3c5-37 33-52 76-52 45 0 72 20 72 64v82c-1 20 7 32 28 27v20c-31 9-61-2-59-35zM48-53c0 20 12 33 32 33 41-3 63-29 60-74-43 2-92-5-92 41" id="ab"/><path fill="#333" d="M59-47c-2 24 18 29 38 22v24C64 9 27 4 27-40v-127H5v-23h24l9-43h21v43h35v23H59v120" id="ac"/><path fill="#333" d="M24-231v-30h32v30H24zM24 0v-190h32V0H24" id="ad"/><path fill="#333" d="M24 0v-261h32V0H24" id="ae"/><path fill="#333" d="M179-190L93 31C79 59 56 82 12 73V49c39 6 53-20 64-50L1-190h34L92-34l54-156h33" id="af"/><g id="a"><use transform="matrix(0.06172839506172839,0,0,0.06172839506172839,0,0)" xlink:href="#Z"/><use transform="matrix(0.06172839506172839,0,0,0.06172839506172839,14.814814814814813,0)" xlink:href="#aa"/><use transform="matrix(0.06172839506172839,0,0,0.06172839506172839,27.160493827160494,0)" xlink:href="#ab"/><use transform="matrix(0.06172839506172839,0,0,0.06172839506172839,39.50617283950617,0)" xlink:href="#ac"/><use transform="matrix(0.06172839506172839,0,0,0.06172839506172839,45.67901234567901,0)" xlink:href="#ad"/><use transform="matrix(0.06172839506172839,0,0,0.06172839506172839,50.55555555555556,0)" xlink:href="#ab"/><use transform="matrix(0.06172839506172839,0,0,0.06172839506172839,62.901234567901234,0)" xlink:href="#ae"/><use transform="matrix(0.06172839506172839,0,0,0.06172839506172839,67.77777777777777,0)" xlink:href="#ad"/><use transform="matrix(0.06172839506172839,0,0,0.06172839506172839,72.65432098765432,0)" xlink:href="#ac"/><use transform="matrix(0.06172839506172839,0,0,0.06172839506172839,78.82716049382715,0)" xlink:href="#af"/></g><path d="M210-169c-67 3-38 105-44 169h-31v-121c0-29-5-50-35-48C34-165 62-65 56 0H25l-1-190h30c1 10-1 24 2 32 10-44 99-50 107 0 11-21 27-35 58-36 85-2 47 119 55 194h-31v-121c0-29-5-49-35-48" id="ag"/><path d="M100-194c63 0 86 42 84 106H49c0 40 14 67 53 68 26 1 43-12 49-29l28 8c-11 28-37 45-77 45C44 4 14-33 15-96c1-61 26-98 85-98zm52 81c6-60-76-77-97-28-3 7-6 17-6 28h103" id="ah"/><path d="M115-194c53 0 69 39 70 98 0 66-23 100-70 100C84 3 66-7 56-30L54 0H23l1-261h32v101c10-23 28-34 59-34zm-8 174c40 0 45-34 45-75 0-40-5-75-45-74-42 0-51 32-51 76 0 43 10 73 51 73" id="ai"/><path d="M114-163C36-179 61-72 57 0H25l-1-190h30c1 12-1 29 2 39 6-27 23-49 58-41v29" id="aj"/><g id="b"><use transform="matrix(0.05,0,0,0.05,0,0)" xlink:href="#ag"/><use transform="matrix(0.05,0,0,0.05,14.950000000000001,0)" xlink:href="#ah"/><use transform="matrix(0.05,0,0,0.05,24.950000000000003,0)" xlink:href="#ag"/><use transform="matrix(0.05,0,0,0.05,39.900000000000006,0)" xlink:href="#ai"/><use transform="matrix(0.05,0,0,0.05,49.900000000000006,0)" xlink:href="#ah"/><use transform="matrix(0.05,0,0,0.05,59.900000000000006,0)" xlink:href="#aj"/></g><path d="M63-220v92h138v28H63V0H30v-248h175v28H63" id="ak"/><path d="M141-36C126-15 110 5 73 4 37 3 15-17 15-53c-1-64 63-63 125-63 3-35-9-54-41-54-24 1-41 7-42 31l-33-3c5-37 33-52 76-52 45 0 72 20 72 64v82c-1 20 7 32 28 27v20c-31 9-61-2-59-35zM48-53c0 20 12 33 32 33 41-3 63-29 60-74-43 2-92-5-92 41" id="al"/><path d="M59-47c-2 24 18 29 38 22v24C64 9 27 4 27-40v-127H5v-23h24l9-43h21v43h35v23H59v120" id="am"/><path d="M84 4C-5 8 30-112 23-190h32v120c0 31 7 50 39 49 72-2 45-101 50-169h31l1 190h-30c-1-10 1-25-2-33-11 22-28 36-60 37" id="an"/><g id="c"><use transform="matrix(0.05,0,0,0.05,0,0)" xlink:href="#ak"/><use transform="matrix(0.05,0,0,0.05,10.950000000000001,0)" xlink:href="#ah"/><use transform="matrix(0.05,0,0,0.05,20.950000000000003,0)" xlink:href="#al"/><use transform="matrix(0.05,0,0,0.05,30.950000000000003,0)" xlink:href="#am"/><use transform="matrix(0.05,0,0,0.05,35.95,0)" xlink:href="#an"/><use transform="matrix(0.05,0,0,0.05,45.95,0)" xlink:href="#aj"/><use transform="matrix(0.05,0,0,0.05,51.900000000000006,0)" xlink:href="#ah"/></g><path d="M212-179c-10-28-35-45-73-45-59 0-87 40-87 99 0 60 29 101 89 101 43 0 62-24 78-52l27 14C228-24 195 4 139 4 59 4 22-46 18-125c-6-104 99-153 187-111 19 9 31 26 39 46" id="ao"/><path d="M100-194c62-1 85 37 85 99 1 63-27 99-86 99S16-35 15-95c0-66 28-99 85-99zM99-20c44 1 53-31 53-75 0-43-8-75-51-75s-53 32-53 75 10 74 51 75" id="ap"/><path d="M24 0v-261h32V0H24" id="aq"/><path d="M96-169c-40 0-48 33-48 73s9 75 48 75c24 0 41-14 43-38l32 2c-6 37-31 61-74 61-59 0-76-41-82-99-10-93 101-131 147-64 4 7 5 14 7 22l-32 3c-4-21-16-35-41-35" id="ar"/><path d="M24-231v-30h32v30H24zM24 0v-190h32V0H24" id="as"/><path d="M117-194c89-4 53 116 60 194h-32v-121c0-31-8-49-39-48C34-167 62-67 57 0H25l-1-190h30c1 10-1 24 2 32 11-22 29-35 61-36" id="at"/><g id="d"><use transform="matrix(0.05,0,0,0.05,0,0)" xlink:href="#ao"/><use transform="matrix(0.05,0,0,0.05,12.950000000000001,0)" xlink:href="#ap"/><use transform="matrix(0.05,0,0,0.05,22.950000000000003,0)" xlink:href="#aq"/><use transform="matrix(0.05,0,0,0.05,26.900000000000002,0)" xlink:href="#aq"/><use transform="matrix(0.05,0,0,0.05,30.85,0)" xlink:href="#ah"/><use transform="matrix(0.05,0,0,0.05,40.85,0)" xlink:href="#ar"/><use transform="matrix(0.05,0,0,0.05,49.85,0)" xlink:href="#am"/><use transform="matrix(0.05,0,0,0.05,54.85,0)" xlink:href="#as"/><use transform="matrix(0.05,0,0,0.05,58.800000000000004,0)" xlink:href="#ap"/><use transform="matrix(0.05,0,0,0.05,68.80000000000001,0)" xlink:href="#at"/></g><g id="e"><use transform="matrix(0.05,0,0,0.05,0,0)" xlink:href="#ak"/><use transform="matrix(0.05,0,0,0.05,10.950000000000001,0)" xlink:href="#ah"/><use transform="matrix(0.05,0,0,0.05,20.950000000000003,0)" xlink:href="#al"/><use transform="matrix(0.05,0,0,0.05,30.950000000000003,0)" xlink:href="#am"/><use transform="matrix(0.05,0,0,0.05,35.95,0)" xlink:href="#an"/><use transform="matrix(0.05,0,0,0.05,45.95,0)" xlink:href="#aj"/><use transform="matrix(0.05,0,0,0.05,51.900000000000006,0)" xlink:href="#ah"/></g><path d="M30-248c87 1 191-15 191 75 0 78-77 80-158 76V0H30v-248zm33 125c57 0 124 11 124-50 0-59-68-47-124-48v98" id="au"/><g id="f"><use transform="matrix(0.05,0,0,0.05,0,0)" xlink:href="#au"/><use transform="matrix(0.05,0,0,0.05,12,0)" xlink:href="#al"/><use transform="matrix(0.05,0,0,0.05,22,0)" xlink:href="#aj"/><use transform="matrix(0.05,0,0,0.05,27.950000000000003,0)" xlink:href="#ar"/><use transform="matrix(0.05,0,0,0.05,36.95,0)" xlink:href="#ah"/><use transform="matrix(0.05,0,0,0.05,46.95,0)" xlink:href="#aq"/></g><path d="M205 0l-28-72H64L36 0H1l101-248h38L239 0h-34zm-38-99l-47-123c-12 45-31 82-46 123h93" id="av"/><path d="M177-190C167-65 218 103 67 71c-23-6-38-20-44-43l32-5c15 47 100 32 89-28v-30C133-14 115 1 83 1 29 1 15-40 15-95c0-56 16-97 71-98 29-1 48 16 59 35 1-10 0-23 2-32h30zM94-22c36 0 50-32 50-73 0-42-14-75-50-75-39 0-46 34-46 75s6 73 46 73" id="aw"/><g id="g"><use transform="matrix(0.05,0,0,0.05,0,0)" xlink:href="#av"/><use transform="matrix(0.05,0,0,0.05,12,0)" xlink:href="#aw"/><use transform="matrix(0.05,0,0,0.05,22,0)" xlink:href="#aw"/><use transform="matrix(0.05,0,0,0.05,32,0)" xlink:href="#aj"/><use transform="matrix(0.05,0,0,0.05,37.95,0)" xlink:href="#ah"/><use transform="matrix(0.05,0,0,0.05,47.95,0)" xlink:href="#aw"/><use transform="matrix(0.05,0,0,0.05,57.95,0)" xlink:href="#al"/><use transform="matrix(0.05,0,0,0.05,67.95,0)" xlink:href="#am"/><use transform="matrix(0.05,0,0,0.05,72.95,0)" xlink:href="#ah"/></g><g id="h"><use transform="matrix(0.05,0,0,0.05,0,0)" xlink:href="#au"/><use transform="matrix(0.05,0,0,0.05,12,0)" xlink:href="#al"/><use transform="matrix(0.05,0,0,0.05,22,0)" xlink:href="#aj"/><use transform="matrix(0.05,0,0,0.05,27.950000000000003,0)" xlink:href="#ar"/><use transform="matrix(0.05,0,0,0.05,36.95,0)" xlink:href="#ah"/><use transform="matrix(0.05,0,0,0.05,46.95,0)" xlink:href="#aq"/></g><path d="M115-194c55 1 70 41 70 98S169 2 115 4C84 4 66-9 55-30l1 105H24l-1-265h31l2 30c10-21 28-34 59-34zm-8 174c40 0 45-34 45-75s-6-73-45-74c-42 0-51 32-51 76 0 43 10 73 51 73" id="ax"/><path d="M179-190L93 31C79 59 56 82 12 73V49c39 6 53-20 64-50L1-190h34L92-34l54-156h33" id="ay"/><g id="i"><use transform="matrix(0.05,0,0,0.05,0,0)" xlink:href="#au"/><use transform="matrix(0.05,0,0,0.05,12,0)" xlink:href="#aj"/><use transform="matrix(0.05,0,0,0.05,17.95,0)" xlink:href="#ap"/><use transform="matrix(0.05,0,0,0.05,27.950000000000003,0)" xlink:href="#ax"/><use transform="matrix(0.05,0,0,0.05,37.95,0)" xlink:href="#ah"/><use transform="matrix(0.05,0,0,0.05,47.95,0)" xlink:href="#aj"/><use transform="matrix(0.05,0,0,0.05,53.900000000000006,0)" xlink:href="#am"/><use transform="matrix(0.05,0,0,0.05,58.900000000000006,0)" xlink:href="#ay"/></g><path d="M85-194c31 0 48 13 60 33l-1-100h32l1 261h-30c-2-10 0-23-3-31C134-8 116 4 85 4 32 4 16-35 15-94c0-66 23-100 70-100zm9 24c-40 0-46 34-46 75 0 40 6 74 45 74 42 0 51-32 51-76 0-42-9-74-50-73" id="az"/><path d="M135-143c-3-34-86-38-87 0 15 53 115 12 119 90S17 21 10-45l28-5c4 36 97 45 98 0-10-56-113-15-118-90-4-57 82-63 122-42 12 7 21 19 24 35" id="aA"/><g id="j"><use transform="matrix(0.05,0,0,0.05,0,0)" xlink:href="#av"/><use transform="matrix(0.05,0,0,0.05,12,0)" xlink:href="#az"/><use transform="matrix(0.05,0,0,0.05,22,0)" xlink:href="#az"/><use transform="matrix(0.05,0,0,0.05,32,0)" xlink:href="#aj"/><use transform="matrix(0.05,0,0,0.05,37.95,0)" xlink:href="#ah"/><use transform="matrix(0.05,0,0,0.05,47.95,0)" xlink:href="#aA"/><use transform="matrix(0.05,0,0,0.05,56.95,0)" xlink:href="#aA"/><use transform="matrix(0.05,0,0,0.05,65.95,0)" xlink:href="#al"/><use transform="matrix(0.05,0,0,0.05,75.95,0)" xlink:href="#ai"/><use transform="matrix(0.05,0,0,0.05,85.95,0)" xlink:href="#aq"/><use transform="matrix(0.05,0,0,0.05,89.9,0)" xlink:href="#ah"/></g><g id="k"><use transform="matrix(0.05,0,0,0.05,0,0)" xlink:href="#au"/><use transform="matrix(0.05,0,0,0.05,12,0)" xlink:href="#aj"/><use transform="matrix(0.05,0,0,0.05,17.95,0)" xlink:href="#ap"/><use transform="matrix(0.05,0,0,0.05,27.950000000000003,0)" xlink:href="#ax"/><use transform="matrix(0.05,0,0,0.05,37.95,0)" xlink:href="#ah"/><use transform="matrix(0.05,0,0,0.05,47.95,0)" xlink:href="#aj"/><use transform="matrix(0.05,0,0,0.05,53.900000000000006,0)" xlink:href="#am"/><use transform="matrix(0.05,0,0,0.05,58.900000000000006,0)" xlink:href="#ay"/></g><path d="M233-177c-1 41-23 64-60 70L243 0h-38l-65-103H63V0H30v-248c88 3 205-21 203 71zM63-129c60-2 137 13 137-47 0-61-80-42-137-45v92" id="aB"/><g id="l"><use transform="matrix(0.05,0,0,0.05,0,0)" xlink:href="#aB"/><use transform="matrix(0.05,0,0,0.05,12.950000000000001,0)" xlink:href="#an"/><use transform="matrix(0.05,0,0,0.05,22.950000000000003,0)" xlink:href="#aj"/><use transform="matrix(0.05,0,0,0.05,28.900000000000002,0)" xlink:href="#al"/><use transform="matrix(0.05,0,0,0.05,38.900000000000006,0)" xlink:href="#aq"/></g><path d="M127-220V0H93v-220H8v-28h204v28h-85" id="aC"/><g id="m"><use transform="matrix(0.05,0,0,0.05,0,0)" xlink:href="#aC"/><use transform="matrix(0.05,0,0,0.05,10.3,0)" xlink:href="#as"/><use transform="matrix(0.05,0,0,0.05,14.25,0)" xlink:href="#am"/><use transform="matrix(0.05,0,0,0.05,19.25,0)" xlink:href="#aq"/><use transform="matrix(0.05,0,0,0.05,23.2,0)" xlink:href="#ah"/></g><path d="M160-131c35 5 61 23 61 61C221 17 115-2 30 0v-248c76 3 177-17 177 60 0 33-19 50-47 57zm-97-11c50-1 110 9 110-42 0-47-63-36-110-37v79zm0 115c55-2 124 14 124-45 0-56-70-42-124-44v89" id="aD"/><g id="n"><use transform="matrix(0.05,0,0,0.05,0,0)" xlink:href="#aD"/><use transform="matrix(0.05,0,0,0.05,12,0)" xlink:href="#al"/><use transform="matrix(0.05,0,0,0.05,22,0)" xlink:href="#aA"/><use transform="matrix(0.05,0,0,0.05,31,0)" xlink:href="#ah"/></g><g id="o"><use transform="matrix(0.05,0,0,0.05,0,0)" xlink:href="#au"/><use transform="matrix(0.05,0,0,0.05,12,0)" xlink:href="#al"/><use transform="matrix(0.05,0,0,0.05,22,0)" xlink:href="#aj"/><use transform="matrix(0.05,0,0,0.05,27.950000000000003,0)" xlink:href="#ar"/><use transform="matrix(0.05,0,0,0.05,36.95,0)" xlink:href="#ah"/><use transform="matrix(0.05,0,0,0.05,46.95,0)" xlink:href="#aq"/></g><path d="M30 0v-248h33v221h125V0H30" id="aE"/><g id="p"><use transform="matrix(0.05,0,0,0.05,0,0)" xlink:href="#aE"/><use transform="matrix(0.05,0,0,0.05,10,0)" xlink:href="#ap"/><use transform="matrix(0.05,0,0,0.05,20,0)" xlink:href="#am"/></g><g id="q"><use transform="matrix(0.05,0,0,0.05,0,0)" xlink:href="#aB"/><use transform="matrix(0.05,0,0,0.05,12.950000000000001,0)" xlink:href="#ap"/><use transform="matrix(0.05,0,0,0.05,22.950000000000003,0)" xlink:href="#al"/><use transform="matrix(0.05,0,0,0.05,32.95,0)" xlink:href="#az"/></g><path d="M266 0h-40l-56-210L115 0H75L2-248h35L96-30l15-64 43-154h32l59 218 59-218h35" id="aF"/><g id="r"><use transform="matrix(0.05,0,0,0.05,0,0)" xlink:href="#aF"/><use transform="matrix(0.05,0,0,0.05,16.3,0)" xlink:href="#al"/><use transform="matrix(0.05,0,0,0.05,26.3,0)" xlink:href="#am"/><use transform="matrix(0.05,0,0,0.05,31.3,0)" xlink:href="#ah"/><use transform="matrix(0.05,0,0,0.05,41.3,0)" xlink:href="#aj"/></g><path d="M33 0v-248h34V0H33" id="aG"/><g id="s"><use transform="matrix(0.05,0,0,0.05,0,0)" xlink:href="#aG"/><use transform="matrix(0.05,0,0,0.05,5,0)" xlink:href="#at"/><use transform="matrix(0.05,0,0,0.05,15,0)" xlink:href="#am"/><use transform="matrix(0.05,0,0,0.05,20,0)" xlink:href="#ah"/><use transform="matrix(0.05,0,0,0.05,30,0)" xlink:href="#aj"/><use transform="matrix(0.05,0,0,0.05,35.95,0)" xlink:href="#aA"/><use transform="matrix(0.05,0,0,0.05,44.95,0)" xlink:href="#am"/><use transform="matrix(0.05,0,0,0.05,49.95,0)" xlink:href="#al"/><use transform="matrix(0.05,0,0,0.05,59.95,0)" xlink:href="#am"/><use transform="matrix(0.05,0,0,0.05,64.95,0)" xlink:href="#ah"/></g><g id="t"><use transform="matrix(0.05,0,0,0.05,0,0)" xlink:href="#aG"/><use transform="matrix(0.05,0,0,0.05,5,0)" xlink:href="#at"/><use transform="matrix(0.05,0,0,0.05,15,0)" xlink:href="#am"/><use transform="matrix(0.05,0,0,0.05,20,0)" xlink:href="#ah"/><use transform="matrix(0.05,0,0,0.05,30,0)" xlink:href="#aj"/><use transform="matrix(0.05,0,0,0.05,35.95,0)" xlink:href="#aA"/><use transform="matrix(0.05,0,0,0.05,44.95,0)" xlink:href="#ah"/><use transform="matrix(0.05,0,0,0.05,54.95,0)" xlink:href="#ar"/><use transform="matrix(0.05,0,0,0.05,63.95,0)" xlink:href="#am"/><use transform="matrix(0.05,0,0,0.05,68.95,0)" xlink:href="#as"/><use transform="matrix(0.05,0,0,0.05,72.9,0)" xlink:href="#ap"/><use transform="matrix(0.05,0,0,0.05,82.9,0)" xlink:href="#at"/></g><g id="u"><use transform="matrix(0.05,0,0,0.05,0,0)" xlink:href="#aC"/><use transform="matrix(0.05,0,0,0.05,10.3,0)" xlink:href="#aj"/><use transform="matrix(0.05,0,0,0.05,16.25,0)" xlink:href="#al"/><use transform="matrix(0.05,0,0,0.05,26.25,0)" xlink:href="#at"/><use transform="matrix(0.05,0,0,0.05,36.25,0)" xlink:href="#aA"/><use transform="matrix(0.05,0,0,0.05,45.25,0)" xlink:href="#ax"/><use transform="matrix(0.05,0,0,0.05,55.25,0)" xlink:href="#ap"/><use transform="matrix(0.05,0,0,0.05,65.25,0)" xlink:href="#aj"/><use transform="matrix(0.05,0,0,0.05,71.2,0)" xlink:href="#am"/><use transform="matrix(0.05,0,0,0.05,76.2,0)" xlink:href="#aB"/><use transform="matrix(0.05,0,0,0.05,89.15,0)" xlink:href="#ap"/><use transform="matrix(0.05,0,0,0.05,99.15,0)" xlink:href="#an"/><use transform="matrix(0.05,0,0,0.05,109.15,0)" xlink:href="#am"/><use transform="matrix(0.05,0,0,0.05,114.15,0)" xlink:href="#ah"/></g><path d="M190 0L58-211 59 0H30v-248h39L202-35l-2-213h31V0h-41" id="aH"/><path d="M16-82v-28h88v28H16" id="aI"/><g id="v"><use transform="matrix(0.05,0,0,0.05,0,0)" xlink:href="#aH"/><use transform="matrix(0.05,0,0,0.05,12.950000000000001,0)" xlink:href="#ap"/><use transform="matrix(0.05,0,0,0.05,22.950000000000003,0)" xlink:href="#at"/><use transform="matrix(0.05,0,0,0.05,32.95,0)" xlink:href="#aI"/><use transform="matrix(0.05,0,0,0.05,38.900000000000006,0)" xlink:href="#aD"/><use transform="matrix(0.05,0,0,0.05,50.900000000000006,0)" xlink:href="#al"/><use transform="matrix(0.05,0,0,0.05,60.900000000000006,0)" xlink:href="#aA"/><use transform="matrix(0.05,0,0,0.05,69.9,0)" xlink:href="#ah"/></g><path d="M30 0v-248h187v28H63v79h144v27H63v87h162V0H30" id="aJ"/><g id="w"><use transform="matrix(0.05,0,0,0.05,0,0)" xlink:href="#aJ"/><use transform="matrix(0.05,0,0,0.05,12,0)" xlink:href="#al"/><use transform="matrix(0.05,0,0,0.05,22,0)" xlink:href="#aA"/><use transform="matrix(0.05,0,0,0.05,31,0)" xlink:href="#ah"/><use transform="matrix(0.05,0,0,0.05,41,0)" xlink:href="#ag"/><use transform="matrix(0.05,0,0,0.05,55.95,0)" xlink:href="#ah"/><use transform="matrix(0.05,0,0,0.05,65.95,0)" xlink:href="#at"/><use transform="matrix(0.05,0,0,0.05,75.95,0)" xlink:href="#am"/></g><g id="x"><use transform="matrix(0.05,0,0,0.05,0,0)" xlink:href="#aG"/><use transform="matrix(0.05,0,0,0.05,5,0)" xlink:href="#at"/><use transform="matrix(0.05,0,0,0.05,15,0)" xlink:href="#am"/><use transform="matrix(0.05,0,0,0.05,20,0)" xlink:href="#ah"/><use transform="matrix(0.05,0,0,0.05,30,0)" xlink:href="#aj"/><use transform="matrix(0.05,0,0,0.05,35.95,0)" xlink:href="#ah"/><use transform="matrix(0.05,0,0,0.05,45.95,0)" xlink:href="#aA"/><use transform="matrix(0.05,0,0,0.05,54.95,0)" xlink:href="#am"/></g><path d="M137 0h-34L2-248h35l83 218 83-218h36" id="aK"/><g id="y"><use transform="matrix(0.05,0,0,0.05,0,0)" xlink:href="#aK"/><use transform="matrix(0.05,0,0,0.05,10.65,0)" xlink:href="#al"/><use transform="matrix(0.05,0,0,0.05,20.65,0)" xlink:href="#aq"/><use transform="matrix(0.05,0,0,0.05,24.599999999999998,0)" xlink:href="#an"/><use transform="matrix(0.05,0,0,0.05,34.599999999999994,0)" xlink:href="#al"/><use transform="matrix(0.05,0,0,0.05,44.599999999999994,0)" xlink:href="#am"/><use transform="matrix(0.05,0,0,0.05,49.599999999999994,0)" xlink:href="#as"/><use transform="matrix(0.05,0,0,0.05,53.54999999999999,0)" xlink:href="#ap"/><use transform="matrix(0.05,0,0,0.05,63.54999999999999,0)" xlink:href="#at"/></g><path d="M143 4C61 4 22-44 18-125c-5-107 100-154 193-111 17 8 29 25 37 43l-32 9c-13-25-37-40-76-40-61 0-88 39-88 99 0 61 29 100 91 101 35 0 62-11 79-27v-45h-74v-28h105v86C228-13 192 4 143 4" id="aL"/><g id="z"><use transform="matrix(0.05,0,0,0.05,0,0)" xlink:href="#aL"/><use transform="matrix(0.05,0,0,0.05,14,0)" xlink:href="#ah"/><use transform="matrix(0.05,0,0,0.05,24,0)" xlink:href="#ap"/><use transform="matrix(0.05,0,0,0.05,34,0)" xlink:href="#ag"/><use transform="matrix(0.05,0,0,0.05,48.95,0)" xlink:href="#ah"/><use transform="matrix(0.05,0,0,0.05,58.95,0)" xlink:href="#am"/><use transform="matrix(0.05,0,0,0.05,63.95,0)" xlink:href="#aj"/><use transform="matrix(0.05,0,0,0.05,69.9,0)" xlink:href="#ay"/></g><path d="M106-169C34-169 62-67 57 0H25v-261h32l-1 103c12-21 28-36 61-36 89 0 53 116 60 194h-32v-121c2-32-8-49-39-48" id="aM"/><g id="A"><use transform="matrix(0.05,0,0,0.05,0,0)" xlink:href="#aM"/><use transform="matrix(0.05,0,0,0.05,10,0)" xlink:href="#al"/><use transform="matrix(0.05,0,0,0.05,20,0)" xlink:href="#aA"/></g><g id="B"><use transform="matrix(0.05,0,0,0.05,0,0)" xlink:href="#aw"/><use transform="matrix(0.05,0,0,0.05,10,0)" xlink:href="#ah"/><use transform="matrix(0.05,0,0,0.05,20,0)" xlink:href="#ap"/><use transform="matrix(0.05,0,0,0.05,30,0)" xlink:href="#ag"/><use transform="matrix(0.05,0,0,0.05,44.95,0)" xlink:href="#ah"/><use transform="matrix(0.05,0,0,0.05,54.95,0)" xlink:href="#am"/><use transform="matrix(0.05,0,0,0.05,59.95,0)" xlink:href="#aj"/><use transform="matrix(0.05,0,0,0.05,65.9,0)" xlink:href="#ay"/></g><path d="M26 75v-336h71v23H56V52h41v23H26" id="aN"/><path d="M27 0v-27h64v-190l-56 39v-29l58-41h29v221h61V0H27" id="aO"/><path d="M33 0v-38h34V0H33" id="aP"/><path d="M3 75V52h41v-290H3v-23h71V75H3" id="aQ"/><g id="C"><use transform="matrix(0.05,0,0,0.05,0,0)" xlink:href="#aN"/><use transform="matrix(0.05,0,0,0.05,5,0)" xlink:href="#aO"/><use transform="matrix(0.05,0,0,0.05,15,0)" xlink:href="#aP"/><use transform="matrix(0.05,0,0,0.05,20,0)" xlink:href="#aP"/><use transform="matrix(0.05,0,0,0.05,25,0)" xlink:href="#aO"/><use transform="matrix(0.05,0,0,0.05,35,0)" xlink:href="#aQ"/></g><path d="M185-189c-5-48-123-54-124 2 14 75 158 14 163 119 3 78-121 87-175 55-17-10-28-26-33-46l33-7c5 56 141 63 141-1 0-78-155-14-162-118-5-82 145-84 179-34 5 7 8 16 11 25" id="aR"/><g id="D"><use transform="matrix(0.05,0,0,0.05,0,0)" xlink:href="#aR"/><use transform="matrix(0.05,0,0,0.05,12,0)" xlink:href="#ak"/></g><path d="M140-251c81 0 123 46 123 126C263-46 219 4 140 4 59 4 17-45 17-125s42-126 123-126zm0 227c63 0 89-41 89-101s-29-99-89-99c-61 0-89 39-89 99S79-25 140-24" id="aS"/><path d="M108 0H70L1-190h34L89-25l56-165h34" id="aT"/><g id="E"><use transform="matrix(0.05,0,0,0.05,0,0)" xlink:href="#aS"/><use transform="matrix(0.05,0,0,0.05,14,0)" xlink:href="#aT"/><use transform="matrix(0.05,0,0,0.05,23,0)" xlink:href="#ah"/><use transform="matrix(0.05,0,0,0.05,33,0)" xlink:href="#aj"/><use transform="matrix(0.05,0,0,0.05,38.95,0)" xlink:href="#aq"/><use transform="matrix(0.05,0,0,0.05,42.900000000000006,0)" xlink:href="#al"/><use transform="matrix(0.05,0,0,0.05,52.900000000000006,0)" xlink:href="#ax"/><use transform="matrix(0.05,0,0,0.05,62.900000000000006,0)" xlink:href="#aA"/></g><path d="M101-251c68 0 85 55 85 127S166 4 100 4C33 4 14-52 14-124c0-73 17-127 87-127zm-1 229c47 0 54-49 54-102s-4-102-53-102c-51 0-55 48-55 102 0 53 5 102 54 102" id="aU"/><g id="F"><use transform="matrix(0.05,0,0,0.05,0,0)" xlink:href="#aN"/><use transform="matrix(0.05,0,0,0.05,5,0)" xlink:href="#aU"/><use transform="matrix(0.05,0,0,0.05,15,0)" xlink:href="#aP"/><use transform="matrix(0.05,0,0,0.05,20,0)" xlink:href="#aP"/><use transform="matrix(0.05,0,0,0.05,25,0)" xlink:href="#aO"/><use transform="matrix(0.05,0,0,0.05,35,0)" xlink:href="#aQ"/></g><path fill="#3a414a" d="M160-131c35 5 61 23 61 61C221 17 115-2 30 0v-248c76 3 177-17 177 60 0 33-19 50-47 57zm-97-11c50-1 110 9 110-42 0-47-63-36-110-37v79zm0 115c55-2 124 14 124-45 0-56-70-42-124-44v89" id="aV"/><path fill="#3a414a" d="M141-36C126-15 110 5 73 4 37 3 15-17 15-53c-1-64 63-63 125-63 3-35-9-54-41-54-24 1-41 7-42 31l-33-3c5-37 33-52 76-52 45 0 72 20 72 64v82c-1 20 7 32 28 27v20c-31 9-61-2-59-35zM48-53c0 20 12 33 32 33 41-3 63-29 60-74-43 2-92-5-92 41" id="aW"/><path fill="#3a414a" d="M135-143c-3-34-86-38-87 0 15 53 115 12 119 90S17 21 10-45l28-5c4 36 97 45 98 0-10-56-113-15-118-90-4-57 82-63 122-42 12 7 21 19 24 35" id="aX"/><path fill="#3a414a" d="M100-194c63 0 86 42 84 106H49c0 40 14 67 53 68 26 1 43-12 49-29l28 8c-11 28-37 45-77 45C44 4 14-33 15-96c1-61 26-98 85-98zm52 81c6-60-76-77-97-28-3 7-6 17-6 28h103" id="aY"/><g id="G"><use transform="matrix(0.06172839506172839,0,0,0.06172839506172839,0,0)" xlink:href="#aV"/><use transform="matrix(0.06172839506172839,0,0,0.06172839506172839,14.814814814814813,0)" xlink:href="#aW"/><use transform="matrix(0.06172839506172839,0,0,0.06172839506172839,27.160493827160494,0)" xlink:href="#aX"/><use transform="matrix(0.06172839506172839,0,0,0.06172839506172839,38.27160493827161,0)" xlink:href="#aY"/></g><path fill="#3a414a" d="M30-248c87 1 191-15 191 75 0 78-77 80-158 76V0H30v-248zm33 125c57 0 124 11 124-50 0-59-68-47-124-48v98" id="aZ"/><path fill="#3a414a" d="M114-163C36-179 61-72 57 0H25l-1-190h30c1 12-1 29 2 39 6-27 23-49 58-41v29" id="ba"/><path fill="#3a414a" d="M96-169c-40 0-48 33-48 73s9 75 48 75c24 0 41-14 43-38l32 2c-6 37-31 61-74 61-59 0-76-41-82-99-10-93 101-131 147-64 4 7 5 14 7 22l-32 3c-4-21-16-35-41-35" id="bb"/><path fill="#3a414a" d="M24 0v-261h32V0H24" id="bc"/><g id="H"><use transform="matrix(0.06172839506172839,0,0,0.06172839506172839,0,0)" xlink:href="#aZ"/><use transform="matrix(0.06172839506172839,0,0,0.06172839506172839,14.814814814814813,0)" xlink:href="#aW"/><use transform="matrix(0.06172839506172839,0,0,0.06172839506172839,27.160493827160494,0)" xlink:href="#ba"/><use transform="matrix(0.06172839506172839,0,0,0.06172839506172839,34.50617283950617,0)" xlink:href="#bb"/><use transform="matrix(0.06172839506172839,0,0,0.06172839506172839,45.61728395061728,0)" xlink:href="#aY"/><use transform="matrix(0.06172839506172839,0,0,0.06172839506172839,57.962962962962955,0)" xlink:href="#bc"/><use transform="matrix(0.06172839506172839,0,0,0.06172839506172839,62.8395061728395,0)" xlink:href="#aX"/></g><path fill="#3a414a" d="M210-169c-67 3-38 105-44 169h-31v-121c0-29-5-50-35-48C34-165 62-65 56 0H25l-1-190h30c1 10-1 24 2 32 10-44 99-50 107 0 11-21 27-35 58-36 85-2 47 119 55 194h-31v-121c0-29-5-49-35-48" id="bd"/><path fill="#3a414a" d="M179-190L93 31C79 59 56 82 12 73V49c39 6 53-20 64-50L1-190h34L92-34l54-156h33" id="be"/><g id="I"><use transform="matrix(0.06172839506172839,0,0,0.06172839506172839,0,0)" xlink:href="#bd"/><use transform="matrix(0.06172839506172839,0,0,0.06172839506172839,18.456790123456788,0)" xlink:href="#aW"/><use transform="matrix(0.06172839506172839,0,0,0.06172839506172839,30.80246913580247,0)" xlink:href="#be"/></g><path fill="#3a414a" d="M67-158c22-48 132-52 116 29L158 0h-32l25-140c3-38-53-32-70-12C52-117 51-52 38 0H6l36-190h30" id="bf"/><path fill="#3a414a" d="M30-147c31-64 166-65 159 27C183-49 158 1 86 4 9 8 1-88 30-147zM88-20c53 0 68-48 68-100 0-31-11-51-44-50-52 1-68 46-68 97 0 32 13 53 44 53" id="bg"/><path fill="#3a414a" d="M51-54c-9 22 5 41 31 30L79-1C43 14 10-4 19-52l22-115H19l5-23h22l19-43h21l-9 43h35l-4 23H73" id="bh"/><g id="J"><use transform="matrix(0.06172839506172839,0,0,0.06172839506172839,0,0)" xlink:href="#bf"/><use transform="matrix(0.06172839506172839,0,0,0.06172839506172839,12.345679012345679,0)" xlink:href="#bg"/><use transform="matrix(0.06172839506172839,0,0,0.06172839506172839,24.691358024691358,0)" xlink:href="#bh"/></g><path fill="#3a414a" d="M100-194c62-1 85 37 85 99 1 63-27 99-86 99S16-35 15-95c0-66 28-99 85-99zM99-20c44 1 53-31 53-75 0-43-8-75-51-75s-53 32-53 75 10 74 51 75" id="bi"/><path fill="#3a414a" d="M108 0H70L1-190h34L89-25l56-165h34" id="bj"/><path fill="#3a414a" d="M115-194c55 1 70 41 70 98S169 2 115 4C84 4 66-9 55-30l1 105H24l-1-265h31l2 30c10-21 28-34 59-34zm-8 174c40 0 45-34 45-75s-6-73-45-74c-42 0-51 32-51 76 0 43 10 73 51 73" id="bk"/><g id="K"><use transform="matrix(0.06172839506172839,0,0,0.06172839506172839,0,0)" xlink:href="#bi"/><use transform="matrix(0.06172839506172839,0,0,0.06172839506172839,12.345679012345679,0)" xlink:href="#bj"/><use transform="matrix(0.06172839506172839,0,0,0.06172839506172839,23.45679012345679,0)" xlink:href="#aY"/><use transform="matrix(0.06172839506172839,0,0,0.06172839506172839,35.80246913580247,0)" xlink:href="#ba"/><use transform="matrix(0.06172839506172839,0,0,0.06172839506172839,43.148148148148145,0)" xlink:href="#bc"/><use transform="matrix(0.06172839506172839,0,0,0.06172839506172839,48.02469135802469,0)" xlink:href="#aW"/><use transform="matrix(0.06172839506172839,0,0,0.06172839506172839,60.37037037037037,0)" xlink:href="#bk"/></g><path fill="#3a414a" d="M59-47c-2 24 18 29 38 22v24C64 9 27 4 27-40v-127H5v-23h24l9-43h21v43h35v23H59v120" id="bl"/><path fill="#3a414a" d="M106-169C34-169 62-67 57 0H25v-261h32l-1 103c12-21 28-36 61-36 89 0 53 116 60 194h-32v-121c2-32-8-49-39-48" id="bm"/><g id="L"><use transform="matrix(0.06172839506172839,0,0,0.06172839506172839,0,0)" xlink:href="#bi"/><use transform="matrix(0.06172839506172839,0,0,0.06172839506172839,12.345679012345679,0)" xlink:href="#bl"/><use transform="matrix(0.06172839506172839,0,0,0.06172839506172839,18.51851851851852,0)" xlink:href="#bm"/><use transform="matrix(0.06172839506172839,0,0,0.06172839506172839,30.864197530864196,0)" xlink:href="#aY"/><use transform="matrix(0.06172839506172839,0,0,0.06172839506172839,43.20987654320987,0)" xlink:href="#ba"/></g><g id="M"><use transform="matrix(0.06172839506172839,0,0,0.06172839506172839,0,0)" xlink:href="#aV"/><use transform="matrix(0.06172839506172839,0,0,0.06172839506172839,14.814814814814813,0)" xlink:href="#aW"/><use transform="matrix(0.06172839506172839,0,0,0.06172839506172839,27.160493827160494,0)" xlink:href="#aX"/><use transform="matrix(0.06172839506172839,0,0,0.06172839506172839,38.27160493827161,0)" xlink:href="#aY"/></g><g id="N"><use transform="matrix(0.06172839506172839,0,0,0.06172839506172839,0,0)" xlink:href="#aZ"/><use transform="matrix(0.06172839506172839,0,0,0.06172839506172839,14.814814814814813,0)" xlink:href="#aW"/><use transform="matrix(0.06172839506172839,0,0,0.06172839506172839,27.160493827160494,0)" xlink:href="#ba"/><use transform="matrix(0.06172839506172839,0,0,0.06172839506172839,34.50617283950617,0)" xlink:href="#bb"/><use transform="matrix(0.06172839506172839,0,0,0.06172839506172839,45.61728395061728,0)" xlink:href="#aY"/><use transform="matrix(0.06172839506172839,0,0,0.06172839506172839,57.962962962962955,0)" xlink:href="#bc"/><use transform="matrix(0.06172839506172839,0,0,0.06172839506172839,62.8395061728395,0)" xlink:href="#aX"/></g><g id="O"><use transform="matrix(0.05,0,0,0.05,0,0)" xlink:href="#aD"/><use transform="matrix(0.05,0,0,0.05,12,0)" xlink:href="#an"/><use transform="matrix(0.05,0,0,0.05,22,0)" xlink:href="#as"/><use transform="matrix(0.05,0,0,0.05,25.950000000000003,0)" xlink:href="#aq"/><use transform="matrix(0.05,0,0,0.05,29.899999999999995,0)" xlink:href="#az"/><use transform="matrix(0.05,0,0,0.05,39.9,0)" xlink:href="#as"/><use transform="matrix(0.05,0,0,0.05,43.85,0)" xlink:href="#at"/><use transform="matrix(0.05,0,0,0.05,53.85,0)" xlink:href="#aw"/></g><path d="M80-196l47-18 7 23-49 13 32 44-20 13-27-46-27 45-21-12 33-44-49-13 8-23 47 19-2-53h23" id="bn"/><g id="P"><use transform="matrix(0.05,0,0,0.05,0,0)" xlink:href="#aN"/><use transform="matrix(0.05,0,0,0.05,5,0)" xlink:href="#aP"/><use transform="matrix(0.05,0,0,0.05,10,0)" xlink:href="#aP"/><use transform="matrix(0.05,0,0,0.05,15,0)" xlink:href="#bn"/><use transform="matrix(0.05,0,0,0.05,22,0)" xlink:href="#aQ"/></g><path fill="#3a414a" d="M190 0L58-211 59 0H30v-248h39L202-35l-2-213h31V0h-41" id="bo"/><path fill="#3a414a" d="M117-194c89-4 53 116 60 194h-32v-121c0-31-8-49-39-48C34-167 62-67 57 0H25l-1-190h30c1 10-1 24 2 32 11-22 29-35 61-36" id="bp"/><path fill="#3a414a" d="M16-82v-28h88v28H16" id="bq"/><g id="Q"><use transform="matrix(0.06172839506172839,0,0,0.06172839506172839,0,0)" xlink:href="#bo"/><use transform="matrix(0.06172839506172839,0,0,0.06172839506172839,15.987654320987653,0)" xlink:href="#bi"/><use transform="matrix(0.06172839506172839,0,0,0.06172839506172839,28.333333333333332,0)" xlink:href="#bp"/><use transform="matrix(0.06172839506172839,0,0,0.06172839506172839,40.67901234567901,0)" xlink:href="#bq"/><use transform="matrix(0.06172839506172839,0,0,0.06172839506172839,48.02469135802469,0)" xlink:href="#aV"/><use transform="matrix(0.06172839506172839,0,0,0.06172839506172839,62.839506172839506,0)" xlink:href="#aW"/><use transform="matrix(0.06172839506172839,0,0,0.06172839506172839,75.18518518518519,0)" xlink:href="#aX"/><use transform="matrix(0.06172839506172839,0,0,0.06172839506172839,86.2962962962963,0)" xlink:href="#aY"/></g><g id="R"><use transform="matrix(0.06172839506172839,0,0,0.06172839506172839,0,0)" xlink:href="#aZ"/><use transform="matrix(0.06172839506172839,0,0,0.06172839506172839,14.814814814814813,0)" xlink:href="#aW"/><use transform="matrix(0.06172839506172839,0,0,0.06172839506172839,27.160493827160494,0)" xlink:href="#ba"/><use transform="matrix(0.06172839506172839,0,0,0.06172839506172839,34.50617283950617,0)" xlink:href="#bb"/><use transform="matrix(0.06172839506172839,0,0,0.06172839506172839,45.61728395061728,0)" xlink:href="#aY"/><use transform="matrix(0.06172839506172839,0,0,0.06172839506172839,57.962962962962955,0)" xlink:href="#bc"/><use transform="matrix(0.06172839506172839,0,0,0.06172839506172839,62.8395061728395,0)" xlink:href="#aX"/></g><path fill="#3a414a" d="M248-111c6-24 9-61-24-58-72 9-57 108-77 169h-31l26-142c3-37-50-30-64-10C52-115 50-51 37 0H6l36-190h30c-1 10-6 24-4 32 13-43 101-52 105 5 13-22 29-41 61-41 90 0 28 129 23 194h-31" id="br"/><path fill="#3a414a" d="M67 3c-93-2-31-127-26-193h32L48-50c-3 39 53 32 70 12 30-34 30-101 43-152h32L157 0h-30c1-10 6-24 4-33-14 20-29 37-64 36" id="bs"/><path fill="#3a414a" d="M55-144c13 50 104 24 104 88C159 21 15 23 1-39l26-10c6 40 102 42 102-4-13-50-104-23-104-87 0-71 143-71 148-8l-29 4c-5-35-85-37-89 0" id="bt"/><g id="S"><use transform="matrix(0.06172839506172839,0,0,0.06172839506172839,0,0)" xlink:href="#br"/><use transform="matrix(0.06172839506172839,0,0,0.06172839506172839,18.456790123456788,0)" xlink:href="#bs"/><use transform="matrix(0.06172839506172839,0,0,0.06172839506172839,30.80246913580247,0)" xlink:href="#bt"/><use transform="matrix(0.06172839506172839,0,0,0.06172839506172839,41.91358024691358,0)" xlink:href="#bh"/></g><g id="T"><use transform="matrix(0.06172839506172839,0,0,0.06172839506172839,0,0)" xlink:href="#aW"/><use transform="matrix(0.06172839506172839,0,0,0.06172839506172839,12.345679012345679,0)" xlink:href="#bl"/></g><g id="U"><use transform="matrix(0.06172839506172839,0,0,0.06172839506172839,0,0)" xlink:href="#bc"/><use transform="matrix(0.06172839506172839,0,0,0.06172839506172839,4.876543209876543,0)" xlink:href="#aY"/><use transform="matrix(0.06172839506172839,0,0,0.06172839506172839,17.22222222222222,0)" xlink:href="#aW"/><use transform="matrix(0.06172839506172839,0,0,0.06172839506172839,29.5679012345679,0)" xlink:href="#aX"/><use transform="matrix(0.06172839506172839,0,0,0.06172839506172839,40.67901234567901,0)" xlink:href="#bl"/></g><g id="V"><use transform="matrix(0.06172839506172839,0,0,0.06172839506172839,0,0)" xlink:href="#bi"/><use transform="matrix(0.06172839506172839,0,0,0.06172839506172839,12.345679012345679,0)" xlink:href="#bp"/><use transform="matrix(0.06172839506172839,0,0,0.06172839506172839,24.691358024691358,0)" xlink:href="#aY"/></g><g id="W"><use transform="matrix(0.06172839506172839,0,0,0.06172839506172839,0,0)" xlink:href="#aZ"/><use transform="matrix(0.06172839506172839,0,0,0.06172839506172839,14.814814814814813,0)" xlink:href="#aW"/><use transform="matrix(0.06172839506172839,0,0,0.06172839506172839,27.160493827160494,0)" xlink:href="#ba"/><use transform="matrix(0.06172839506172839,0,0,0.06172839506172839,34.50617283950617,0)" xlink:href="#bb"/><use transform="matrix(0.06172839506172839,0,0,0.06172839506172839,45.61728395061728,0)" xlink:href="#aY"/><use transform="matrix(0.06172839506172839,0,0,0.06172839506172839,57.962962962962955,0)" xlink:href="#bc"/></g><g id="X"><use transform="matrix(0.05,0,0,0.05,0,0)" xlink:href="#aR"/><use transform="matrix(0.05,0,0,0.05,12,0)" xlink:href="#ax"/><use transform="matrix(0.05,0,0,0.05,22,0)" xlink:href="#al"/><use transform="matrix(0.05,0,0,0.05,32,0)" xlink:href="#am"/><use transform="matrix(0.05,0,0,0.05,37,0)" xlink:href="#as"/><use transform="matrix(0.05,0,0,0.05,40.95,0)" xlink:href="#al"/><use transform="matrix(0.05,0,0,0.05,50.95,0)" xlink:href="#aq"/></g><path d="M24-231v-30h32v30H24zM-9 49c24 4 33-6 33-30v-209h32V24c2 40-23 58-65 49V49" id="bu"/><g id="Y"><use transform="matrix(0.05,0,0,0.05,0,0)" xlink:href="#aS"/><use transform="matrix(0.05,0,0,0.05,14,0)" xlink:href="#ai"/><use transform="matrix(0.05,0,0,0.05,24,0)" xlink:href="#bu"/><use transform="matrix(0.05,0,0,0.05,27.950000000000003,0)" xlink:href="#ah"/><use transform="matrix(0.05,0,0,0.05,37.95,0)" xlink:href="#ar"/><use transform="matrix(0.05,0,0,0.05,46.95,0)" xlink:href="#am"/></g></defs></g></svg>