<svg xmlns="http://www.w3.org/2000/svg" xmlns:xlink="http://www.w3.org/1999/xlink" xmlns:lucid="lucid" width="1266.75" height="1647.47"><g transform="translate(-47.56662716278419 -204.82855233629135)" lucid:page-tab-id="0_0"><path d="M0 0h1500v2000H0z" fill="#fff"/><path d="M450.86 472.4h-81.3v-2h81.3zm146.32 0H516.7v-2h80.48z" stroke="#000" stroke-width=".05"/><path d="M369.6 472.4h-1.03v-2h1.02z"/><path d="M369.62 472.44h-1.08v-2.05h1.08zm-1.03-2v1.95h.97v-1.96zM599 471.4l-18.67 11.06-1.02-1.73 15.77-9.32-15.76-9.3 1.03-1.73z" stroke="#000" stroke-width=".05"/><use xlink:href="#a" transform="matrix(1,0,0,1,450.85831358139205,460.6142761681457) translate(0.005000000000002558 14.4)"/><path d="M207.57 416.4a5 5 0 0 1 5-5h150a5 5 0 0 1 5 5v110a5 5 0 0 1-5 5h-150a5 5 0 0 1-5-5z" stroke="#000" stroke-width="2" fill="#ced4db"/><use xlink:href="#b" transform="matrix(1,0,0,1,219.5666271627842,423.4142761681457) translate(37.05 41.4)"/><use xlink:href="#c" transform="matrix(1,0,0,1,219.5666271627842,423.4142761681457) translate(28.599999999999994 63)"/><path d="M680 582v-31.08" stroke="#3a414a" stroke-width="2" fill="none"/><path d="M681 583h-2v-1.03h2z" stroke="#3a414a" stroke-width=".05" fill="#3a414a"/><path d="M680 535.65l4.63 14.27h-9.26z" stroke="#3a414a" stroke-width="2" fill="#fff"/><path d="M600 416.4a5 5 0 0 1 5-5h150a5 5 0 0 1 5 5v110a5 5 0 0 1-5 5H605a5 5 0 0 1-5-5z" stroke="#000" stroke-width="2" fill="#ced4db"/><use xlink:href="#d" transform="matrix(1,0,0,1,612,423.4142761681457) translate(37.05 50.4)"/><path d="M207.57 589a5 5 0 0 1 5-5h150a5 5 0 0 1 5 5v110a5 5 0 0 1-5 5h-150a5 5 0 0 1-5-5z" stroke="#000" stroke-width="2" fill="#ced4db"/><use xlink:href="#e" transform="matrix(1,0,0,1,219.56662716278424,596.0000000000001) translate(42.55 41.4)"/><use xlink:href="#f" transform="matrix(1,0,0,1,219.56662716278424,596.0000000000001) translate(26.525 63)"/><path d="M605.33 589a5 5 0 0 1 5-5h150a5 5 0 0 1 5 5v110a5 5 0 0 1-5 5h-150a5 5 0 0 1-5-5z" stroke="#000" stroke-width="2" fill="#ced4db"/><use xlink:href="#g" transform="matrix(1,0,0,1,617.3333333333334,596.0000000000001) translate(42.55 50.4)"/><path d="M287.57 582v-31.08" stroke="#3a414a" stroke-width="2" fill="none"/><path d="M288.57 583h-2v-1.03h2z" stroke="#3a414a" stroke-width=".05" fill="#3a414a"/><path d="M287.57 535.65l4.63 14.27h-9.27z" stroke="#3a414a" stroke-width="2" fill="#fff"/><path d="M67.57 774.78a5 5 0 0 1 5-5h150a5 5 0 0 1 5 5v110a5 5 0 0 1-5 5h-150a5 5 0 0 1-5-5z" stroke="#000" stroke-width="2" fill="#fff"/><use xlink:href="#h" transform="matrix(1,0,0,1,79.56662716278419,781.7771467468064) translate(34.05 50.4)"/><path d="M147.57 767.78v-24.9a6 6 0 0 1 6-6h128a6 6 0 0 0 6-6v-7.38" stroke="#3a414a" stroke-width="2" fill="none"/><path d="M148.57 768.78h-2v-1.03h2z" stroke="#3a414a" stroke-width=".05" fill="#3a414a"/><path d="M287.57 708.24l4.63 14.26h-9.27z" stroke="#3a414a" stroke-width="2" fill="#fff"/><path d="M142.67 940.55a5 5 0 0 1 5-5h150a5 5 0 0 1 5 5v110a5 5 0 0 1-5 5h-150a5 5 0 0 1-5-5z" stroke="#000" stroke-width="2" fill="#fff"/><use xlink:href="#i" transform="matrix(1,0,0,1,154.66666666666669,947.5542934936126) translate(18.049999999999997 41.4)"/><use xlink:href="#j" transform="matrix(1,0,0,1,154.66666666666669,947.5542934936126) translate(34.05 63)"/><path d="M142.67 1084.55a5 5 0 0 1 5-5h150a5 5 0 0 1 5 5v110a5 5 0 0 1-5 5h-150a5 5 0 0 1-5-5z" stroke="#000" stroke-width="2" fill="#fff"/><use xlink:href="#k" transform="matrix(1,0,0,1,154.66666666666669,1091.5542934936125) translate(46.574999999999996 41.4)"/><use xlink:href="#j" transform="matrix(1,0,0,1,154.66666666666669,1091.5542934936125) translate(34.05 63)"/><path d="M142.67 1228.55a5 5 0 0 1 5-5h150a5 5 0 0 1 5 5v110a5 5 0 0 1-5 5h-150a5 5 0 0 1-5-5z" stroke="#000" stroke-width="2" fill="#fff"/><use xlink:href="#l" transform="matrix(1,0,0,1,154.66666666666669,1235.5542934936125) translate(51.4 41.4)"/><use xlink:href="#j" transform="matrix(1,0,0,1,154.66666666666669,1235.5542934936125) translate(34.05 63)"/><path d="M140.67 995.55h-29.34a6 6 0 0 1-6-6v-80.27" stroke="#3a414a" stroke-width="2" fill="none"/><path d="M141.67 996.55h-1.03v-2h1.03z" stroke="#3a414a" stroke-width=".05" fill="#3a414a"/><path d="M105.33 894l4.64 14.28h-9.27z" stroke="#3a414a" stroke-width="2" fill="#fff"/><path d="M140.67 1139.55h-29.34a6 6 0 0 1-6-6V909.28" stroke="#3a414a" stroke-width="2" fill="none"/><path d="M141.67 1140.55h-1.03v-2h1.03z" stroke="#3a414a" stroke-width=".05" fill="#3a414a"/><path d="M105.33 894l4.64 14.28h-9.27z" stroke="#3a414a" stroke-width="2" fill="#fff"/><path d="M140.67 1283.55h-29.34a6 6 0 0 1-6-6V909.28" stroke="#3a414a" stroke-width="2" fill="none"/><path d="M141.67 1284.55h-1.03v-2h1.03z" stroke="#3a414a" stroke-width=".05" fill="#3a414a"/><path d="M105.33 894l4.64 14.28h-9.27z" stroke="#3a414a" stroke-width="2" fill="#fff"/><path d="M669.68 774.78a5 5 0 0 1 5-5h150a5 5 0 0 1 5 5v110a5 5 0 0 1-5 5h-150a5 5 0 0 1-5-5z" stroke="#000" stroke-width="2" fill="#fff"/><use xlink:href="#m" transform="matrix(1,0,0,1,681.675954227017,781.7771467468064) translate(47.5 41.4)"/><use xlink:href="#n" transform="matrix(1,0,0,1,681.675954227017,781.7771467468064) translate(42.55 63)"/><path d="M667.68 829.78h-19a6 6 0 0 1-6-6V723.5" stroke="#3a414a" stroke-width="2" fill="none"/><path d="M668.68 830.78h-1.03v-2h1.03z" stroke="#3a414a" stroke-width=".05" fill="#3a414a"/><path d="M642.67 708.24l4.63 14.26h-9.27z" stroke="#3a414a" stroke-width="2" fill="#fff"/><path d="M739 928.1a5 5 0 0 1 5-5h150a5 5 0 0 1 5 5v110a5 5 0 0 1-5 5H744a5 5 0 0 1-5-5z" stroke="#000" stroke-width="2" fill="#fff"/><use xlink:href="#o" transform="matrix(1,0,0,1,751.0092875603502,935.1104800801397) translate(55.5 41.4)"/><use xlink:href="#n" transform="matrix(1,0,0,1,751.0092875603502,935.1104800801397) translate(42.55 63)"/><path d="M739 1072.1a5 5 0 0 1 5-5h150a5 5 0 0 1 5 5v110a5 5 0 0 1-5 5H744a5 5 0 0 1-5-5z" stroke="#000" stroke-width="2" fill="#fff"/><use xlink:href="#p" transform="matrix(1,0,0,1,751.0092875603502,1079.1104800801395) translate(46.525 41.4)"/><use xlink:href="#n" transform="matrix(1,0,0,1,751.0092875603502,1079.1104800801395) translate(42.55 63)"/><path d="M739 1390.6a5 5 0 0 1 5-5h150a5 5 0 0 1 5 5v110a5 5 0 0 1-5 5H744a5 5 0 0 1-5-5z" stroke="#000" stroke-width="2" fill="#fff"/><use xlink:href="#q" transform="matrix(1,0,0,1,751.0092875603502,1397.5999991033432) translate(44.375 41.4)"/><use xlink:href="#n" transform="matrix(1,0,0,1,751.0092875603502,1397.5999991033432) translate(42.55 63)"/><path d="M737 983.1h-28a6 6 0 0 1-6-6V909.3" stroke="#3a414a" stroke-width="2" fill="none"/><path d="M738 984.1H737v-2H738z" stroke="#3a414a" stroke-width=".05" fill="#3a414a"/><path d="M703 894l4.64 14.28h-9.27z" stroke="#3a414a" stroke-width="2" fill="#fff"/><path d="M737 1127.1h-28a6 6 0 0 1-6-6V909.3" stroke="#3a414a" stroke-width="2" fill="none"/><path d="M738 1128.1H737v-2H738z" stroke="#3a414a" stroke-width=".05" fill="#3a414a"/><path d="M703 894l4.64 14.28h-9.27z" stroke="#3a414a" stroke-width="2" fill="#fff"/><path d="M737 1445.6h-28a6 6 0 0 1-6-6V909.28" stroke="#3a414a" stroke-width="2" fill="none"/><path d="M738 1446.6H737v-2H738z" stroke="#3a414a" stroke-width=".05" fill="#3a414a"/><path d="M703 894l4.64 14.28h-9.27z" stroke="#3a414a" stroke-width="2" fill="#fff"/><path d="M828.78 1248.15a5 5 0 0 1 5-5h150a5 5 0 0 1 5 5v110a5 5 0 0 1-5 5h-150a5 5 0 0 1-5-5z" stroke="#000" stroke-width="2" fill="#fff"/><use xlink:href="#r" transform="matrix(1,0,0,1,840.7759937308992,1255.1499544731741) translate(21.549999999999997 41.4)"/><use xlink:href="#n" transform="matrix(1,0,0,1,840.7759937308992,1255.1499544731741) translate(42.55 63)"/><path d="M1004.67 1248.15a5 5 0 0 1 5-5h150a5 5 0 0 1 5 5v110a5 5 0 0 1-5 5h-150a5 5 0 0 1-5-5z" stroke="#000" stroke-width="2" fill="#fff"/><use xlink:href="#s" transform="matrix(1,0,0,1,1016.6732223557487,1255.1499544731741) translate(5.924999999999997 41.4)"/><use xlink:href="#n" transform="matrix(1,0,0,1,1016.6732223557487,1255.1499544731741) translate(42.55 63)"/><path d="M908.78 1241.15v-20.02a6 6 0 0 0-6-6H782.34a6 6 0 0 1-6-6v-2.52" stroke="#3a414a" stroke-width="2" fill="none"/><path d="M909.78 1242.15h-2v-1.03h2z" stroke="#3a414a" stroke-width=".05" fill="#3a414a"/><path d="M776.34 1191.35l4.64 14.26h-9.27z" stroke="#3a414a" stroke-width="2" fill="#fff"/><path d="M1084.67 1241.15v-20.1a6 6 0 0 0-6-6H782.34a6 6 0 0 1-6-6v-2.44" stroke="#3a414a" stroke-width="2" fill="none"/><path d="M1085.67 1242.15h-2v-1.03h2z" stroke="#3a414a" stroke-width=".05" fill="#3a414a"/><path d="M776.34 1191.35l4.64 14.26h-9.27z" stroke="#3a414a" stroke-width="2" fill="#fff"/><path d="M668.78 1540.9a5 5 0 0 1 5-5h150a5 5 0 0 1 5 5v110a5 5 0 0 1-5 5h-150a5 5 0 0 1-5-5z" stroke="#000" stroke-width="2" fill="#fff"/><use xlink:href="#t" transform="matrix(1,0,0,1,680.7759937308992,1547.9023801035269) translate(28.049999999999997 41.4)"/><use xlink:href="#n" transform="matrix(1,0,0,1,680.7759937308992,1547.9023801035269) translate(42.55 63)"/><path d="M914.66 1717.3a5 5 0 0 1 5-5h150a5 5 0 0 1 5 5v110a5 5 0 0 1-5 5h-150a5 5 0 0 1-5-5z" stroke="#000" stroke-width="2" fill="#fff"/><use xlink:href="#u" transform="matrix(1,0,0,1,926.6624546781572,1724.3018451503613) translate(38.025 41.4)"/><use xlink:href="#n" transform="matrix(1,0,0,1,926.6624546781572,1724.3018451503613) translate(42.55 63)"/><path d="M666.78 1595.9h-18.1a6 6 0 0 1-6-6V723.5" stroke="#3a414a" stroke-width="2" fill="none"/><path d="M667.78 1596.9h-1.03v-2h1.03z" stroke="#3a414a" stroke-width=".05" fill="#3a414a"/><path d="M642.67 708.24l4.63 14.26h-9.27z" stroke="#3a414a" stroke-width="2" fill="#fff"/><path d="M994.66 1710.3V1690a6 6 0 0 0-6-6h-280.6a6 6 0 0 1-6-6v-2.6" stroke="#3a414a" stroke-width="2" fill="none"/><path d="M995.66 1711.3h-2v-1.02h2z" stroke="#3a414a" stroke-width=".05" fill="#3a414a"/><path d="M702.06 1660.14l4.63 14.26h-9.28z" stroke="#3a414a" stroke-width="2" fill="#fff"/><path d="M142.67 1372.55a5 5 0 0 1 5-5h150a5 5 0 0 1 5 5v110a5 5 0 0 1-5 5h-150a5 5 0 0 1-5-5z" stroke="#000" stroke-width="2" fill="#fff"/><use xlink:href="#v" transform="matrix(1,0,0,1,154.66666666666669,1379.5542934936125) translate(31.225 41.4)"/><use xlink:href="#j" transform="matrix(1,0,0,1,154.66666666666669,1379.5542934936125) translate(34.05 63)"/><path d="M140.67 1427.55h-29.34a6 6 0 0 1-6-6V909.28" stroke="#3a414a" stroke-width="2" fill="none"/><path d="M141.67 1428.55h-1.03v-2h1.03z" stroke="#3a414a" stroke-width=".05" fill="#3a414a"/><path d="M105.33 894l4.64 14.28h-9.27z" stroke="#3a414a" stroke-width="2" fill="#fff"/><path d="M992.43 416.4a5 5 0 0 1 5-5h150a5 5 0 0 1 5 5v110a5 5 0 0 1-5 5h-150a5 5 0 0 1-5-5z" stroke="#000" stroke-width="2" fill="#ced4db"/><use xlink:href="#w" transform="matrix(1,0,0,1,1004.4333728372158,423.4142761681457) translate(28.549999999999997 50.4)"/><path d="M821.77 472.83l-59.77.15v-2l59.77-.15zm167.85-.4l-58.95.13v-2l58.94-.14z" stroke="#000" stroke-width=".05"/><path d="M762.03 472.98H761v-2h1.02z"/><path d="M762.05 473h-1.07v-2.04h1.07zm-1.02-2v1.96h.97V471zM991.43 471.4l-18.64 11.1-1.03-1.72 15.73-9.36-15.78-9.28 1.02-1.72z" stroke="#000" stroke-width=".05"/><use xlink:href="#x" transform="matrix(1,0,0,1,821.7666866769753,450.0984804014053) translate(0.005000000000002558 14.4)"/><use xlink:href="#y" transform="matrix(1,0,0,1,821.7666866769753,450.0984804014053) translate(34.005 14.4)"/><use xlink:href="#z" transform="matrix(1,0,0,1,821.7666866769753,450.0984804014053) translate(34.455000000000005 36)"/><path d="M913 802.15l-.07.9-.22.92-.35.87-.5.8-.6.72-.72.6-.8.5-.88.36-.9.22-.9.07h-75.37v-2h75.28l.66-.04.62-.15.58-.23.53-.33.48-.4.4-.48.33-.54.24-.57.15-.6.05-.68v-82.8h2zm-50.92-103.48h-64.7l-.66.05-.6.14-.6.25-.53.33-.48.4-.4.5-.34.52-.24.58-.14.6-.06.68v64.26h-2v-64.33l.07-.9.23-.92.36-.86.5-.8.6-.72.7-.6.82-.5.87-.36.9-.22.9-.07h64.78z" stroke="#000" stroke-width=".05"/><path d="M831.7 808.1h-1.02v-2h1.02z"/><path d="M831.73 808.13h-1.08v-2.04h1.08zm-1.03-2v1.96h.98v-1.97zM803.38 750.1l-11.04 18.68-11.04-18.67 1.72-1 9.32 15.75 9.32-15.76z" stroke="#000" stroke-width=".05"/><use xlink:href="#A" transform="matrix(1,0,0,1,862.075,676.0666882222159) translate(0.005000000000002558 14.4)"/><use xlink:href="#B" transform="matrix(1,0,0,1,862.075,676.0666882222159) translate(27.955000000000005 14.4)"/><use xlink:href="#C" transform="matrix(1,0,0,1,862.075,676.0666882222159) translate(29.930000000000007 36)"/><path d="M1094.32 651.56a6 6 0 0 1 6-6h188a6 6 0 0 1 6 6v92.22a6 6 0 0 1-6 6h-188a6 6 0 0 1-6-6z" stroke="#000" stroke-opacity="0" fill="#fff" fill-opacity="0"/><use xlink:href="#D" transform="matrix(1,0,0,1,1099.3198337844738,650.5562296976256) translate(5.586419753086432 26.68402777777778)"/><use xlink:href="#E" transform="matrix(1,0,0,1,1099.3198337844738,650.5562296976256) translate(62.37654320987656 26.68402777777778)"/><use xlink:href="#F" transform="matrix(1,0,0,1,1099.3198337844738,650.5562296976256) translate(142.5 26.68402777777778)"/><use xlink:href="#G" transform="matrix(1,0,0,1,1099.3198337844738,650.5562296976256) translate(11.759259259259267 53.35069444444445)"/><use xlink:href="#H" transform="matrix(1,0,0,1,1099.3198337844738,650.5562296976256) translate(48.796296296296305 53.35069444444445)"/><use xlink:href="#I" transform="matrix(1,0,0,1,1099.3198337844738,650.5562296976256) translate(127.68518518518519 53.35069444444445)"/><use xlink:href="#J" transform="matrix(1,0,0,1,1099.3198337844738,650.5562296976256) translate(29.629629629629633 80.01736111111111)"/><use xlink:href="#K" transform="matrix(1,0,0,1,1099.3198337844738,650.5562296976256) translate(86.41975308641976 80.01736111111111)"/><path d="M1093.82 698.17h-5.04v-1h5.04zm-10.1 0h-10.08v-1h10.1zm-15.12 0h-10.1v-1h10.1zm-15.14 0h-10.1v-1h10.1zm-15.13 0h-10.1v-1h10.1zm-15.13 0h-10.1v-1h10.1zm-15.14 0h-10.1v-1h10.1zm-15.13 0h-10.1v-1h10.1zm-15.13 0h-10.1v-1h10.1zm-15.14 0h-.74v-1h.74z" stroke="#3a414a" stroke-width=".05" fill="#3a414a"/><path d="M1094.32 698.17h-.5v-1h.5z" fill="#3a414a"/><path d="M1094.35 698.2h-.57v-1.06h.57zm-.52-1v.94h.47v-.95z" stroke="#3a414a" stroke-width=".05" fill="#3a414a"/><path fill="#3a414a"/><path stroke="#3a414a" stroke-width=".05" fill="#3a414a"/><path d="M739 1717.3a5 5 0 0 1 5-5h150a5 5 0 0 1 5 5v110a5 5 0 0 1-5 5H744a5 5 0 0 1-5-5z" stroke="#000" stroke-width="2" fill="#fff"/><use xlink:href="#L" transform="matrix(1,0,0,1,751.0092875603502,1724.3018451503613) translate(44.025 41.4)"/><use xlink:href="#M" transform="matrix(1,0,0,1,751.0092875603502,1724.3018451503613) translate(42.55 63)"/><path d="M819 1710.3v-20.2a6 6 0 0 0-6-6H708.07a6 6 0 0 1-6-6v-2.7" stroke="#3a414a" stroke-width="2" fill="none"/><path d="M820 1711.3h-2v-1.02h2z" stroke="#3a414a" stroke-width=".05" fill="#3a414a"/><path d="M702.06 1660.14l4.63 14.26h-9.28z" stroke="#3a414a" stroke-width="2" fill="#fff"/><path d="M1251.34 1590.94l-.07.9-.22.92-.36.87-.5.8-.6.72-.73.6-.8.5-.87.36-.92.23-.9.07h-414.6v-2h414.52l.67-.05.6-.15.6-.24.52-.32.47-.4.4-.5.33-.52.24-.58.15-.6.04-.68v-343.3h2zm-5.06-736.76l.92.22.87.36.8.5.72.6.6.72.5.8.35.88.22.9.07.9v344.3h-2v-344.2l-.05-.67-.16-.63-.24-.57-.32-.54-.4-.48-.5-.4-.52-.33-.58-.24-.6-.14-.68-.05H832.5v-2h412.88z" stroke="#000" stroke-width=".05"/><path d="M830.8 1596.9h-1.02v-2h1.02z"/><path d="M830.83 1596.93h-1.08v-2.05h1.08zm-1.03-2v1.95h.98v-1.95zM850.36 845.8l-15.75 9.3 15.76 9.33-1 1.72-18.68-11.04 18.67-11.03z" stroke="#000" stroke-width=".05"/><use xlink:href="#A" transform="matrix(1,0,0,1,1200.4176208936835,1204.3564289762744) translate(0.005000000000002558 14.4)"/><use xlink:href="#B" transform="matrix(1,0,0,1,1200.4176208936835,1204.3564289762744) translate(27.955000000000005 14.4)"/><use xlink:href="#N" transform="matrix(1,0,0,1,1200.4176208936835,1204.3564289762744) translate(36.43000000000001 36)"/><path d="M969 1019.13a6 6 0 0 1 6-6h208a6 6 0 0 1 6 6v82.67a6 6 0 0 1-6 6H975a6 6 0 0 1-6-6z" stroke="#000" stroke-opacity="0" fill="#fff" fill-opacity="0"/><use xlink:href="#O" transform="matrix(1,0,0,1,974.0092875603502,1018.1301957211077) translate(15.617283950617292 20.43402777777778)"/><use xlink:href="#P" transform="matrix(1,0,0,1,974.0092875603502,1018.1301957211077) translate(120.43209876543212 20.43402777777778)"/><use xlink:href="#Q" transform="matrix(1,0,0,1,974.0092875603502,1018.1301957211077) translate(2.654320987654316 47.10069444444444)"/><use xlink:href="#H" transform="matrix(1,0,0,1,974.0092875603502,1018.1301957211077) translate(56.91358024691358 47.10069444444444)"/><use xlink:href="#R" transform="matrix(1,0,0,1,974.0092875603502,1018.1301957211077) translate(135.80246913580248 47.10069444444444)"/><use xlink:href="#S" transform="matrix(1,0,0,1,974.0092875603502,1018.1301957211077) translate(160.49382716049382 47.10069444444444)"/><use xlink:href="#T" transform="matrix(1,0,0,1,974.0092875603502,1018.1301957211077) translate(23.580246913580254 73.76736111111111)"/><use xlink:href="#J" transform="matrix(1,0,0,1,974.0092875603502,1018.1301957211077) translate(66.79012345679013 73.76736111111111)"/><use xlink:href="#U" transform="matrix(1,0,0,1,974.0092875603502,1018.1301957211077) translate(123.58024691358025 73.76736111111111)"/><path d="M1229.9 1204.1l-.18.26h-1.26l-7.22-4.64.54-.85zm-12.18-7.83l-.54.84-8.12-5.2.54-.85zm-12.18-7.82l-.54.84-8.12-5.22.54-.85zm-12.18-7.82l-.54.84-8.12-5.2.54-.85zm-12.18-7.82l-.54.85-8.12-5.2.55-.85zM1169 1165l-.54.83-8.1-5.2.53-.85zm-12.17-7.83l-.54.84-8.13-5.2.54-.84zm-12.18-7.82l-.54.84-8.1-5.22.53-.84zm-12.18-7.82l-.54.84-8.12-5.2.55-.85zm-12.18-7.82l-.55.85-8.12-5.2.54-.85zm-12.18-7.8l-.54.83-8.12-5.2.54-.85zm-12.18-7.83l-.54.84-8.12-5.2.54-.84zm-12.18-7.82l-.54.84-4.06-2.6.54-.85z" stroke="#3a414a" stroke-width=".05" fill="#3a414a"/><path stroke="#3a414a" stroke-width=".05" fill="#3a414a"/><path d="M1079.17 1108.5l-1.1-.7h1.55z" fill="#3a414a"/><path d="M1079.18 1108.53l-1.18-.76h1.66zm-1-.7l.98.63.4-.64z" stroke="#3a414a" stroke-width=".05" fill="#3a414a"/><path d="M287.57 582v-14a6 6 0 0 1 6-6H543.4a6 6 0 0 0 6-6v-42a6 6 0 0 1 6-6h25.1" stroke="#3a414a" stroke-width="2" fill="none"/><path d="M288.57 583h-2v-1.03h2z" stroke="#3a414a" stroke-width=".05" fill="#3a414a"/><path d="M595.76 508l-14.26 4.63v-9.26z" stroke="#3a414a" stroke-width="2" fill="#fff"/><path d="M600 229.83a5 5 0 0 1 5-5h150a5 5 0 0 1 5 5v110a5 5 0 0 1-5 5H605a5 5 0 0 1-5-5z" stroke="#000" stroke-width="2" fill="#ced4db"/><g><use xlink:href="#V" transform="matrix(1,0,0,1,612,236.82855233629135) translate(12.074999999999996 50.4)"/><use xlink:href="#W" transform="matrix(1,0,0,1,612,236.82855233629135) translate(71.975 50.4)"/></g><path d="M287.57 409.4v-25.28a6 6 0 0 1 6-6H674a6 6 0 0 0 6-6v-7.8" stroke="#3a414a" stroke-width="2" fill="none"/><path d="M288.57 410.4h-2v-1h2z" stroke="#3a414a" stroke-width=".05" fill="#3a414a"/><path d="M680 349.06l4.63 14.27h-9.26z" stroke="#3a414a" stroke-width="2" fill="#fff"/><path d="M680 409.9v-47.7" stroke="#3a414a" fill="none"/><path d="M680.5 410.4h-1v-.5h1z" stroke="#3a414a" stroke-width=".05" fill="#3a414a"/><path d="M680 347.45l4.63 14.26h-9.26z" stroke="#3a414a" fill="#fff"/><path d="M1072.43 409.4v-25.28a6 6 0 0 0-6-6H686a6 6 0 0 1-6-6v-7.8" stroke="#3a414a" stroke-width="2" fill="none"/><path d="M1073.43 410.4h-2v-1h2z" stroke="#3a414a" stroke-width=".05" fill="#3a414a"/><path d="M680 349.06l4.63 14.27h-9.26z" stroke="#3a414a" stroke-width="2" fill="#fff"/><path d="M436.94 774.78a5 5 0 0 1 5-5h150a5 5 0 0 1 5 5v110a5 5 0 0 1-5 5h-150a5 5 0 0 1-5-5z" stroke="#000" stroke-width="2" fill="#fff"/><g><use xlink:href="#X" transform="matrix(1,0,0,1,448.93693621991656,781.7771467468064) translate(46.525 50.4)"/></g><path d="M516.94 767.78v-24.9a6 6 0 0 0-6-6H293.57a6 6 0 0 1-6-6v-7.38" stroke="#3a414a" stroke-width="2" fill="none"/><path d="M517.94 768.78h-2v-1.03h2z" stroke="#3a414a" stroke-width=".05" fill="#3a414a"/><path d="M287.57 708.24l4.63 14.26h-9.27z" stroke="#3a414a" stroke-width="2" fill="#fff"/><path d="M638.8 988.3l1.32-1.04 2.56-.57 2.52.56 1.3.82 1.63 2.1.56 2.55-.58 2.52-.25.4 51.27 41.56 1.32-1.02 2.56-.56 2.52.57 1.3.8 1.63 2.1.56 2.55-.57 2.53-.25.4 29.32 23.75-1.26 1.56-30.7-24.9 1.03-1.6.38-1.75-.37-1.68-1.12-1.46-.7-.44-1.77-.4-1.67.38-2.22 1.73-53.87-43.7 1.02-1.6.4-1.75-.38-1.68-1.13-1.45-.72-.46-1.75-.4-1.68.37-2.23 1.75-38.92-31.56h3.18zm-89.06-72.2h-3.17l-29.5-23.92 1.27-1.55z" stroke="#000" stroke-width=".05"/><path d="M517.1 892.2l-1.75-1.42h2.9z"/><path d="M517.1 892.24l-1.82-1.5h3.03zm-1.68-1.44l1.68 1.37 1.1-1.37zM738.3 1070.26l-21.46-3.2.3-1.96 18.1 2.68-6.36-17.16 1.87-.7z" stroke="#000" stroke-width=".05"/><g><use xlink:href="#Y" transform="matrix(1,0,0,1,541.872216013486,916.0894676466065) translate(10.505000000000006 14.4)"/><use xlink:href="#Z" transform="matrix(1,0,0,1,541.872216013486,916.0894676466065) translate(0.005000000000002558 36)"/></g><path d="M252.25 774.78a5 5 0 0 1 5-5h150a5 5 0 0 1 5 5v110a5 5 0 0 1-5 5h-150a5 5 0 0 1-5-5z" stroke="#000" stroke-width="2" fill="#fff"/><g><use xlink:href="#aa" transform="matrix(1,0,0,1,264.2517816913504,781.7771467468064) translate(10.924999999999997 50.4)"/><use xlink:href="#ab" transform="matrix(1,0,0,1,264.2517816913504,781.7771467468064) translate(63.175 50.4)"/></g><path d="M332.25 767.78v-24.9a6 6 0 0 0-6-6h-32.68a6 6 0 0 1-6-6v-7.38" stroke="#3a414a" stroke-width="2" fill="none"/><path d="M333.25 768.78h-2v-1.03h2z" stroke="#3a414a" stroke-width=".05" fill="#3a414a"/><path d="M287.57 708.24l4.63 14.26h-9.27z" stroke="#3a414a" stroke-width="2" fill="#fff"/><path d="M639.77 1265.34l1.5-.74 2.63-.04 2.35 1.07 1.1 1.07 1.18 2.37.04 2.62-1.07 2.35-.33.34 52.95 64.75 1.5-.75 2.62-.03 2.36 1.07 1.1 1.06 1.17 2.38.04 2.62-1.06 2.35-.33.34 30.78 37.63-1.54 1.27-31.9-39.02 1.32-1.37.74-1.62-.02-1.72-.82-1.66-.6-.58-1.64-.74-1.72.02-2.53 1.25-55.08-67.37 1.32-1.37.74-1.63-.02-1.72-.82-1.66-.6-.6-1.64-.73-1.73.02-2.52 1.24-87.4-106.9h2.58zm-120.68-147.6h-2.6L332.1 892.17l1.56-1.26z" stroke="#000" stroke-width=".05"/><path d="M333.68 890.94l-1.55 1.26-1.17-1.42h2.58z"/><path d="M333.7 890.94l-1.58 1.3-1.2-1.5h2.63zm-2.7-.14l1.13 1.37 1.5-1.24-.1-.13zM738.66 1387.88l-20.37-7.47.68-1.87 17.2 6.3-2.77-18.1 2-.3z" stroke="#000" stroke-width=".05"/><g><use xlink:href="#Y" transform="matrix(1,0,0,1,502.5311399975182,1117.7258812729015) translate(10.505000000000006 14.4)"/><use xlink:href="#Z" transform="matrix(1,0,0,1,502.5311399975182,1117.7258812729015) translate(0.005000000000002558 36)"/></g><path d="M387.1 966.38l6.93 2.88 1.1-1.5 2.54-1.24 2.77.05.93.32 2.26 1.66 1.24 2.53-.05 2.64 28.75 11.95 30.48 11.17 21.7 6.93 16.2 4.44 12.56 2.88 2.8.5v2.05l-3.2-.6-12.62-2.9-16.3-4.45-21.78-6.96-30.55-11.2-30.5-12.68.47-1.37.04-1.97-.8-1.65-1.63-1.2-.34-.1-1.98-.06-1.66.82-1.75 2.37-8.43-3.5-160.5-76.74.86-1.8zm349.35-33.57l-8.48 1.87-10.24 2.68-9.58 2.94-1.04.2-.45-1.1-1.3-1.56-1.74-.72-2.04.2-.2.08-1.55 1.3-.7 1.74.27 2.95-8.6 3.44-8.27 3.73-8.2 4.1-8.36 4.67-9.02 5.53-10.33 7.35-1.24-1.38-1.6-.88-1.73-.1-1.72.7-.58.54-.87 1.6-.1 1.72 1.07 2.62-5.66 4.03-1.24-1.38-1.6-.88-1.72-.1-1.73.7-.58.53-.9 1.6-.1 1.72 1.1 2.62-10.25 7.28-8.27 5.57-5.9 3.63-4.97 2.76-4.45 2.24-4.15 1.87-3.98 1.6-2.28.8v-2.12l1.57-.55 3.9-1.57 4.1-1.83 4.37-2.2 4.9-2.72 5.82-3.58 8.2-5.54 8.93-6.35-.64-1.57.14-2.63 1.26-2.3 1.1-.97 2.46-1 2.64.15 2.28 1.25.27.3 2.92-2.07-.65-1.57.16-2.64 1.25-2.3 1.1-.97 2.46-1 2.63.14 2.3 1.25.26.3 8.9-6.35 9.13-5.6 8.45-4.7 8.26-4.14 8.34-3.76 7.26-2.9-.2-1.96 1.1-2.66 2.18-1.8.75-.32 2.85-.28 2.66 1.1 1.65 2 8.95-2.76 10.32-2.7 8.52-1.86z" stroke="#000" stroke-width=".05"/><path d="M226.65 889.67l-.86 1.8-1.84-.87.46-.1.87-.37.8-.5.17-.14z"/><path d="M226.7 889.66l-.9 1.85-1.92-.9.53-.14.88-.36.8-.5.2-.14zm-.6 0l-.8.5-.87.35-.4.1 1.75.84.84-1.76-.35-.17zM738 931.45l-15.7 14.97-1.37-1.45 13.25-12.64-17.45-5.52.6-1.9z" stroke="#000" stroke-width=".05"/><g><use xlink:href="#Y" transform="matrix(1,0,0,1,517.2888474798376,994.5646540774953) translate(10.505000000000006 14.4)"/><use xlink:href="#Z" transform="matrix(1,0,0,1,517.2888474798376,994.5646540774953) translate(0.005000000000002558 36)"/></g><defs><path d="M210-169c-67 3-38 105-44 169h-31v-121c0-29-5-50-35-48C34-165 62-65 56 0H25l-1-190h30c1 10-1 24 2 32 10-44 99-50 107 0 11-21 27-35 58-36 85-2 47 119 55 194h-31v-121c0-29-5-49-35-48" id="ac"/><path d="M100-194c63 0 86 42 84 106H49c0 40 14 67 53 68 26 1 43-12 49-29l28 8c-11 28-37 45-77 45C44 4 14-33 15-96c1-61 26-98 85-98zm52 81c6-60-76-77-97-28-3 7-6 17-6 28h103" id="ad"/><path d="M115-194c53 0 69 39 70 98 0 66-23 100-70 100C84 3 66-7 56-30L54 0H23l1-261h32v101c10-23 28-34 59-34zm-8 174c40 0 45-34 45-75 0-40-5-75-45-74-42 0-51 32-51 76 0 43 10 73 51 73" id="ae"/><path d="M114-163C36-179 61-72 57 0H25l-1-190h30c1 12-1 29 2 39 6-27 23-49 58-41v29" id="af"/><g id="a"><use transform="matrix(0.05,0,0,0.05,0,0)" xlink:href="#ac"/><use transform="matrix(0.05,0,0,0.05,14.950000000000001,0)" xlink:href="#ad"/><use transform="matrix(0.05,0,0,0.05,24.950000000000003,0)" xlink:href="#ac"/><use transform="matrix(0.05,0,0,0.05,39.900000000000006,0)" xlink:href="#ae"/><use transform="matrix(0.05,0,0,0.05,49.900000000000006,0)" xlink:href="#ad"/><use transform="matrix(0.05,0,0,0.05,59.900000000000006,0)" xlink:href="#af"/></g><path d="M63-220v92h138v28H63V0H30v-248h175v28H63" id="ag"/><path d="M141-36C126-15 110 5 73 4 37 3 15-17 15-53c-1-64 63-63 125-63 3-35-9-54-41-54-24 1-41 7-42 31l-33-3c5-37 33-52 76-52 45 0 72 20 72 64v82c-1 20 7 32 28 27v20c-31 9-61-2-59-35zM48-53c0 20 12 33 32 33 41-3 63-29 60-74-43 2-92-5-92 41" id="ah"/><path d="M59-47c-2 24 18 29 38 22v24C64 9 27 4 27-40v-127H5v-23h24l9-43h21v43h35v23H59v120" id="ai"/><path d="M84 4C-5 8 30-112 23-190h32v120c0 31 7 50 39 49 72-2 45-101 50-169h31l1 190h-30c-1-10 1-25-2-33-11 22-28 36-60 37" id="aj"/><g id="b"><use transform="matrix(0.05,0,0,0.05,0,0)" xlink:href="#ag"/><use transform="matrix(0.05,0,0,0.05,10.950000000000001,0)" xlink:href="#ad"/><use transform="matrix(0.05,0,0,0.05,20.950000000000003,0)" xlink:href="#ah"/><use transform="matrix(0.05,0,0,0.05,30.950000000000003,0)" xlink:href="#ai"/><use transform="matrix(0.05,0,0,0.05,35.95,0)" xlink:href="#aj"/><use transform="matrix(0.05,0,0,0.05,45.95,0)" xlink:href="#af"/><use transform="matrix(0.05,0,0,0.05,51.900000000000006,0)" xlink:href="#ad"/></g><path d="M212-179c-10-28-35-45-73-45-59 0-87 40-87 99 0 60 29 101 89 101 43 0 62-24 78-52l27 14C228-24 195 4 139 4 59 4 22-46 18-125c-6-104 99-153 187-111 19 9 31 26 39 46" id="ak"/><path d="M100-194c62-1 85 37 85 99 1 63-27 99-86 99S16-35 15-95c0-66 28-99 85-99zM99-20c44 1 53-31 53-75 0-43-8-75-51-75s-53 32-53 75 10 74 51 75" id="al"/><path d="M24 0v-261h32V0H24" id="am"/><path d="M96-169c-40 0-48 33-48 73s9 75 48 75c24 0 41-14 43-38l32 2c-6 37-31 61-74 61-59 0-76-41-82-99-10-93 101-131 147-64 4 7 5 14 7 22l-32 3c-4-21-16-35-41-35" id="an"/><path d="M24-231v-30h32v30H24zM24 0v-190h32V0H24" id="ao"/><path d="M117-194c89-4 53 116 60 194h-32v-121c0-31-8-49-39-48C34-167 62-67 57 0H25l-1-190h30c1 10-1 24 2 32 11-22 29-35 61-36" id="ap"/><g id="c"><use transform="matrix(0.05,0,0,0.05,0,0)" xlink:href="#ak"/><use transform="matrix(0.05,0,0,0.05,12.950000000000001,0)" xlink:href="#al"/><use transform="matrix(0.05,0,0,0.05,22.950000000000003,0)" xlink:href="#am"/><use transform="matrix(0.05,0,0,0.05,26.900000000000002,0)" xlink:href="#am"/><use transform="matrix(0.05,0,0,0.05,30.85,0)" xlink:href="#ad"/><use transform="matrix(0.05,0,0,0.05,40.85,0)" xlink:href="#an"/><use transform="matrix(0.05,0,0,0.05,49.85,0)" xlink:href="#ai"/><use transform="matrix(0.05,0,0,0.05,54.85,0)" xlink:href="#ao"/><use transform="matrix(0.05,0,0,0.05,58.800000000000004,0)" xlink:href="#al"/><use transform="matrix(0.05,0,0,0.05,68.80000000000001,0)" xlink:href="#ap"/></g><g id="d"><use transform="matrix(0.05,0,0,0.05,0,0)" xlink:href="#ag"/><use transform="matrix(0.05,0,0,0.05,10.950000000000001,0)" xlink:href="#ad"/><use transform="matrix(0.05,0,0,0.05,20.950000000000003,0)" xlink:href="#ah"/><use transform="matrix(0.05,0,0,0.05,30.950000000000003,0)" xlink:href="#ai"/><use transform="matrix(0.05,0,0,0.05,35.95,0)" xlink:href="#aj"/><use transform="matrix(0.05,0,0,0.05,45.95,0)" xlink:href="#af"/><use transform="matrix(0.05,0,0,0.05,51.900000000000006,0)" xlink:href="#ad"/></g><path d="M30-248c87 1 191-15 191 75 0 78-77 80-158 76V0H30v-248zm33 125c57 0 124 11 124-50 0-59-68-47-124-48v98" id="aq"/><g id="e"><use transform="matrix(0.05,0,0,0.05,0,0)" xlink:href="#aq"/><use transform="matrix(0.05,0,0,0.05,12,0)" xlink:href="#ah"/><use transform="matrix(0.05,0,0,0.05,22,0)" xlink:href="#af"/><use transform="matrix(0.05,0,0,0.05,27.950000000000003,0)" xlink:href="#an"/><use transform="matrix(0.05,0,0,0.05,36.95,0)" xlink:href="#ad"/><use transform="matrix(0.05,0,0,0.05,46.95,0)" xlink:href="#am"/></g><path d="M205 0l-28-72H64L36 0H1l101-248h38L239 0h-34zm-38-99l-47-123c-12 45-31 82-46 123h93" id="ar"/><path d="M177-190C167-65 218 103 67 71c-23-6-38-20-44-43l32-5c15 47 100 32 89-28v-30C133-14 115 1 83 1 29 1 15-40 15-95c0-56 16-97 71-98 29-1 48 16 59 35 1-10 0-23 2-32h30zM94-22c36 0 50-32 50-73 0-42-14-75-50-75-39 0-46 34-46 75s6 73 46 73" id="as"/><g id="f"><use transform="matrix(0.05,0,0,0.05,0,0)" xlink:href="#ar"/><use transform="matrix(0.05,0,0,0.05,12,0)" xlink:href="#as"/><use transform="matrix(0.05,0,0,0.05,22,0)" xlink:href="#as"/><use transform="matrix(0.05,0,0,0.05,32,0)" xlink:href="#af"/><use transform="matrix(0.05,0,0,0.05,37.95,0)" xlink:href="#ad"/><use transform="matrix(0.05,0,0,0.05,47.95,0)" xlink:href="#as"/><use transform="matrix(0.05,0,0,0.05,57.95,0)" xlink:href="#ah"/><use transform="matrix(0.05,0,0,0.05,67.95,0)" xlink:href="#ai"/><use transform="matrix(0.05,0,0,0.05,72.95,0)" xlink:href="#ad"/></g><g id="g"><use transform="matrix(0.05,0,0,0.05,0,0)" xlink:href="#aq"/><use transform="matrix(0.05,0,0,0.05,12,0)" xlink:href="#ah"/><use transform="matrix(0.05,0,0,0.05,22,0)" xlink:href="#af"/><use transform="matrix(0.05,0,0,0.05,27.950000000000003,0)" xlink:href="#an"/><use transform="matrix(0.05,0,0,0.05,36.95,0)" xlink:href="#ad"/><use transform="matrix(0.05,0,0,0.05,46.95,0)" xlink:href="#am"/></g><path d="M115-194c55 1 70 41 70 98S169 2 115 4C84 4 66-9 55-30l1 105H24l-1-265h31l2 30c10-21 28-34 59-34zm-8 174c40 0 45-34 45-75s-6-73-45-74c-42 0-51 32-51 76 0 43 10 73 51 73" id="at"/><path d="M179-190L93 31C79 59 56 82 12 73V49c39 6 53-20 64-50L1-190h34L92-34l54-156h33" id="au"/><g id="h"><use transform="matrix(0.05,0,0,0.05,0,0)" xlink:href="#aq"/><use transform="matrix(0.05,0,0,0.05,12,0)" xlink:href="#af"/><use transform="matrix(0.05,0,0,0.05,17.95,0)" xlink:href="#al"/><use transform="matrix(0.05,0,0,0.05,27.950000000000003,0)" xlink:href="#at"/><use transform="matrix(0.05,0,0,0.05,37.95,0)" xlink:href="#ad"/><use transform="matrix(0.05,0,0,0.05,47.95,0)" xlink:href="#af"/><use transform="matrix(0.05,0,0,0.05,53.900000000000006,0)" xlink:href="#ai"/><use transform="matrix(0.05,0,0,0.05,58.900000000000006,0)" xlink:href="#au"/></g><path d="M85-194c31 0 48 13 60 33l-1-100h32l1 261h-30c-2-10 0-23-3-31C134-8 116 4 85 4 32 4 16-35 15-94c0-66 23-100 70-100zm9 24c-40 0-46 34-46 75 0 40 6 74 45 74 42 0 51-32 51-76 0-42-9-74-50-73" id="av"/><path d="M135-143c-3-34-86-38-87 0 15 53 115 12 119 90S17 21 10-45l28-5c4 36 97 45 98 0-10-56-113-15-118-90-4-57 82-63 122-42 12 7 21 19 24 35" id="aw"/><g id="i"><use transform="matrix(0.05,0,0,0.05,0,0)" xlink:href="#ar"/><use transform="matrix(0.05,0,0,0.05,12,0)" xlink:href="#av"/><use transform="matrix(0.05,0,0,0.05,22,0)" xlink:href="#av"/><use transform="matrix(0.05,0,0,0.05,32,0)" xlink:href="#af"/><use transform="matrix(0.05,0,0,0.05,37.95,0)" xlink:href="#ad"/><use transform="matrix(0.05,0,0,0.05,47.95,0)" xlink:href="#aw"/><use transform="matrix(0.05,0,0,0.05,56.95,0)" xlink:href="#aw"/><use transform="matrix(0.05,0,0,0.05,65.95,0)" xlink:href="#ah"/><use transform="matrix(0.05,0,0,0.05,75.95,0)" xlink:href="#ae"/><use transform="matrix(0.05,0,0,0.05,85.95,0)" xlink:href="#am"/><use transform="matrix(0.05,0,0,0.05,89.9,0)" xlink:href="#ad"/></g><g id="j"><use transform="matrix(0.05,0,0,0.05,0,0)" xlink:href="#aq"/><use transform="matrix(0.05,0,0,0.05,12,0)" xlink:href="#af"/><use transform="matrix(0.05,0,0,0.05,17.95,0)" xlink:href="#al"/><use transform="matrix(0.05,0,0,0.05,27.950000000000003,0)" xlink:href="#at"/><use transform="matrix(0.05,0,0,0.05,37.95,0)" xlink:href="#ad"/><use transform="matrix(0.05,0,0,0.05,47.95,0)" xlink:href="#af"/><use transform="matrix(0.05,0,0,0.05,53.900000000000006,0)" xlink:href="#ai"/><use transform="matrix(0.05,0,0,0.05,58.900000000000006,0)" xlink:href="#au"/></g><path d="M233-177c-1 41-23 64-60 70L243 0h-38l-65-103H63V0H30v-248c88 3 205-21 203 71zM63-129c60-2 137 13 137-47 0-61-80-42-137-45v92" id="ax"/><g id="k"><use transform="matrix(0.05,0,0,0.05,0,0)" xlink:href="#ax"/><use transform="matrix(0.05,0,0,0.05,12.950000000000001,0)" xlink:href="#aj"/><use transform="matrix(0.05,0,0,0.05,22.950000000000003,0)" xlink:href="#af"/><use transform="matrix(0.05,0,0,0.05,28.900000000000002,0)" xlink:href="#ah"/><use transform="matrix(0.05,0,0,0.05,38.900000000000006,0)" xlink:href="#am"/></g><path d="M127-220V0H93v-220H8v-28h204v28h-85" id="ay"/><g id="l"><use transform="matrix(0.05,0,0,0.05,0,0)" xlink:href="#ay"/><use transform="matrix(0.05,0,0,0.05,10.3,0)" xlink:href="#ao"/><use transform="matrix(0.05,0,0,0.05,14.25,0)" xlink:href="#ai"/><use transform="matrix(0.05,0,0,0.05,19.25,0)" xlink:href="#am"/><use transform="matrix(0.05,0,0,0.05,23.2,0)" xlink:href="#ad"/></g><path d="M160-131c35 5 61 23 61 61C221 17 115-2 30 0v-248c76 3 177-17 177 60 0 33-19 50-47 57zm-97-11c50-1 110 9 110-42 0-47-63-36-110-37v79zm0 115c55-2 124 14 124-45 0-56-70-42-124-44v89" id="az"/><g id="m"><use transform="matrix(0.05,0,0,0.05,0,0)" xlink:href="#az"/><use transform="matrix(0.05,0,0,0.05,12,0)" xlink:href="#ah"/><use transform="matrix(0.05,0,0,0.05,22,0)" xlink:href="#aw"/><use transform="matrix(0.05,0,0,0.05,31,0)" xlink:href="#ad"/></g><g id="n"><use transform="matrix(0.05,0,0,0.05,0,0)" xlink:href="#aq"/><use transform="matrix(0.05,0,0,0.05,12,0)" xlink:href="#ah"/><use transform="matrix(0.05,0,0,0.05,22,0)" xlink:href="#af"/><use transform="matrix(0.05,0,0,0.05,27.950000000000003,0)" xlink:href="#an"/><use transform="matrix(0.05,0,0,0.05,36.95,0)" xlink:href="#ad"/><use transform="matrix(0.05,0,0,0.05,46.95,0)" xlink:href="#am"/></g><path d="M30 0v-248h33v221h125V0H30" id="aA"/><g id="o"><use transform="matrix(0.05,0,0,0.05,0,0)" xlink:href="#aA"/><use transform="matrix(0.05,0,0,0.05,10,0)" xlink:href="#al"/><use transform="matrix(0.05,0,0,0.05,20,0)" xlink:href="#ai"/></g><g id="p"><use transform="matrix(0.05,0,0,0.05,0,0)" xlink:href="#ax"/><use transform="matrix(0.05,0,0,0.05,12.950000000000001,0)" xlink:href="#al"/><use transform="matrix(0.05,0,0,0.05,22.950000000000003,0)" xlink:href="#ah"/><use transform="matrix(0.05,0,0,0.05,32.95,0)" xlink:href="#av"/></g><path d="M266 0h-40l-56-210L115 0H75L2-248h35L96-30l15-64 43-154h32l59 218 59-218h35" id="aB"/><g id="q"><use transform="matrix(0.05,0,0,0.05,0,0)" xlink:href="#aB"/><use transform="matrix(0.05,0,0,0.05,16.3,0)" xlink:href="#ah"/><use transform="matrix(0.05,0,0,0.05,26.3,0)" xlink:href="#ai"/><use transform="matrix(0.05,0,0,0.05,31.3,0)" xlink:href="#ad"/><use transform="matrix(0.05,0,0,0.05,41.3,0)" xlink:href="#af"/></g><path d="M33 0v-248h34V0H33" id="aC"/><g id="r"><use transform="matrix(0.05,0,0,0.05,0,0)" xlink:href="#aC"/><use transform="matrix(0.05,0,0,0.05,5,0)" xlink:href="#ap"/><use transform="matrix(0.05,0,0,0.05,15,0)" xlink:href="#ai"/><use transform="matrix(0.05,0,0,0.05,20,0)" xlink:href="#ad"/><use transform="matrix(0.05,0,0,0.05,30,0)" xlink:href="#af"/><use transform="matrix(0.05,0,0,0.05,35.95,0)" xlink:href="#aw"/><use transform="matrix(0.05,0,0,0.05,44.95,0)" xlink:href="#ad"/><use transform="matrix(0.05,0,0,0.05,54.95,0)" xlink:href="#an"/><use transform="matrix(0.05,0,0,0.05,63.95,0)" xlink:href="#ai"/><use transform="matrix(0.05,0,0,0.05,68.95,0)" xlink:href="#ao"/><use transform="matrix(0.05,0,0,0.05,72.9,0)" xlink:href="#al"/><use transform="matrix(0.05,0,0,0.05,82.9,0)" xlink:href="#ap"/></g><g id="s"><use transform="matrix(0.05,0,0,0.05,0,0)" xlink:href="#ay"/><use transform="matrix(0.05,0,0,0.05,10.3,0)" xlink:href="#af"/><use transform="matrix(0.05,0,0,0.05,16.25,0)" xlink:href="#ah"/><use transform="matrix(0.05,0,0,0.05,26.25,0)" xlink:href="#ap"/><use transform="matrix(0.05,0,0,0.05,36.25,0)" xlink:href="#aw"/><use transform="matrix(0.05,0,0,0.05,45.25,0)" xlink:href="#at"/><use transform="matrix(0.05,0,0,0.05,55.25,0)" xlink:href="#al"/><use transform="matrix(0.05,0,0,0.05,65.25,0)" xlink:href="#af"/><use transform="matrix(0.05,0,0,0.05,71.2,0)" xlink:href="#ai"/><use transform="matrix(0.05,0,0,0.05,76.2,0)" xlink:href="#ax"/><use transform="matrix(0.05,0,0,0.05,89.15,0)" xlink:href="#al"/><use transform="matrix(0.05,0,0,0.05,99.15,0)" xlink:href="#aj"/><use transform="matrix(0.05,0,0,0.05,109.15,0)" xlink:href="#ai"/><use transform="matrix(0.05,0,0,0.05,114.15,0)" xlink:href="#ad"/></g><path d="M190 0L58-211 59 0H30v-248h39L202-35l-2-213h31V0h-41" id="aD"/><path d="M16-82v-28h88v28H16" id="aE"/><g id="t"><use transform="matrix(0.05,0,0,0.05,0,0)" xlink:href="#aD"/><use transform="matrix(0.05,0,0,0.05,12.950000000000001,0)" xlink:href="#al"/><use transform="matrix(0.05,0,0,0.05,22.950000000000003,0)" xlink:href="#ap"/><use transform="matrix(0.05,0,0,0.05,32.95,0)" xlink:href="#aE"/><use transform="matrix(0.05,0,0,0.05,38.900000000000006,0)" xlink:href="#az"/><use transform="matrix(0.05,0,0,0.05,50.900000000000006,0)" xlink:href="#ah"/><use transform="matrix(0.05,0,0,0.05,60.900000000000006,0)" xlink:href="#aw"/><use transform="matrix(0.05,0,0,0.05,69.9,0)" xlink:href="#ad"/></g><g id="u"><use transform="matrix(0.05,0,0,0.05,0,0)" xlink:href="#aC"/><use transform="matrix(0.05,0,0,0.05,5,0)" xlink:href="#ap"/><use transform="matrix(0.05,0,0,0.05,15,0)" xlink:href="#ai"/><use transform="matrix(0.05,0,0,0.05,20,0)" xlink:href="#ad"/><use transform="matrix(0.05,0,0,0.05,30,0)" xlink:href="#af"/><use transform="matrix(0.05,0,0,0.05,35.95,0)" xlink:href="#ad"/><use transform="matrix(0.05,0,0,0.05,45.95,0)" xlink:href="#aw"/><use transform="matrix(0.05,0,0,0.05,54.95,0)" xlink:href="#ai"/></g><path d="M137 0h-34L2-248h35l83 218 83-218h36" id="aF"/><g id="v"><use transform="matrix(0.05,0,0,0.05,0,0)" xlink:href="#aF"/><use transform="matrix(0.05,0,0,0.05,10.65,0)" xlink:href="#ah"/><use transform="matrix(0.05,0,0,0.05,20.65,0)" xlink:href="#am"/><use transform="matrix(0.05,0,0,0.05,24.599999999999998,0)" xlink:href="#aj"/><use transform="matrix(0.05,0,0,0.05,34.599999999999994,0)" xlink:href="#ah"/><use transform="matrix(0.05,0,0,0.05,44.599999999999994,0)" xlink:href="#ai"/><use transform="matrix(0.05,0,0,0.05,49.599999999999994,0)" xlink:href="#ao"/><use transform="matrix(0.05,0,0,0.05,53.54999999999999,0)" xlink:href="#al"/><use transform="matrix(0.05,0,0,0.05,63.54999999999999,0)" xlink:href="#ap"/></g><path d="M143 4C61 4 22-44 18-125c-5-107 100-154 193-111 17 8 29 25 37 43l-32 9c-13-25-37-40-76-40-61 0-88 39-88 99 0 61 29 100 91 101 35 0 62-11 79-27v-45h-74v-28h105v86C228-13 192 4 143 4" id="aG"/><g id="w"><use transform="matrix(0.05,0,0,0.05,0,0)" xlink:href="#aG"/><use transform="matrix(0.05,0,0,0.05,14,0)" xlink:href="#ad"/><use transform="matrix(0.05,0,0,0.05,24,0)" xlink:href="#al"/><use transform="matrix(0.05,0,0,0.05,34,0)" xlink:href="#ac"/><use transform="matrix(0.05,0,0,0.05,48.95,0)" xlink:href="#ad"/><use transform="matrix(0.05,0,0,0.05,58.95,0)" xlink:href="#ai"/><use transform="matrix(0.05,0,0,0.05,63.95,0)" xlink:href="#af"/><use transform="matrix(0.05,0,0,0.05,69.9,0)" xlink:href="#au"/></g><path d="M106-169C34-169 62-67 57 0H25v-261h32l-1 103c12-21 28-36 61-36 89 0 53 116 60 194h-32v-121c2-32-8-49-39-48" id="aH"/><g id="x"><use transform="matrix(0.05,0,0,0.05,0,0)" xlink:href="#aH"/><use transform="matrix(0.05,0,0,0.05,10,0)" xlink:href="#ah"/><use transform="matrix(0.05,0,0,0.05,20,0)" xlink:href="#aw"/></g><g id="y"><use transform="matrix(0.05,0,0,0.05,0,0)" xlink:href="#as"/><use transform="matrix(0.05,0,0,0.05,10,0)" xlink:href="#ad"/><use transform="matrix(0.05,0,0,0.05,20,0)" xlink:href="#al"/><use transform="matrix(0.05,0,0,0.05,30,0)" xlink:href="#ac"/><use transform="matrix(0.05,0,0,0.05,44.95,0)" xlink:href="#ad"/><use transform="matrix(0.05,0,0,0.05,54.95,0)" xlink:href="#ai"/><use transform="matrix(0.05,0,0,0.05,59.95,0)" xlink:href="#af"/><use transform="matrix(0.05,0,0,0.05,65.9,0)" xlink:href="#au"/></g><path d="M26 75v-336h71v23H56V52h41v23H26" id="aI"/><path d="M27 0v-27h64v-190l-56 39v-29l58-41h29v221h61V0H27" id="aJ"/><path d="M33 0v-38h34V0H33" id="aK"/><path d="M3 75V52h41v-290H3v-23h71V75H3" id="aL"/><g id="z"><use transform="matrix(0.05,0,0,0.05,0,0)" xlink:href="#aI"/><use transform="matrix(0.05,0,0,0.05,5,0)" xlink:href="#aJ"/><use transform="matrix(0.05,0,0,0.05,15,0)" xlink:href="#aK"/><use transform="matrix(0.05,0,0,0.05,20,0)" xlink:href="#aK"/><use transform="matrix(0.05,0,0,0.05,25,0)" xlink:href="#aJ"/><use transform="matrix(0.05,0,0,0.05,35,0)" xlink:href="#aL"/></g><path d="M185-189c-5-48-123-54-124 2 14 75 158 14 163 119 3 78-121 87-175 55-17-10-28-26-33-46l33-7c5 56 141 63 141-1 0-78-155-14-162-118-5-82 145-84 179-34 5 7 8 16 11 25" id="aM"/><g id="A"><use transform="matrix(0.05,0,0,0.05,0,0)" xlink:href="#aM"/><use transform="matrix(0.05,0,0,0.05,12,0)" xlink:href="#ag"/></g><path d="M140-251c81 0 123 46 123 126C263-46 219 4 140 4 59 4 17-45 17-125s42-126 123-126zm0 227c63 0 89-41 89-101s-29-99-89-99c-61 0-89 39-89 99S79-25 140-24" id="aN"/><path d="M108 0H70L1-190h34L89-25l56-165h34" id="aO"/><g id="B"><use transform="matrix(0.05,0,0,0.05,0,0)" xlink:href="#aN"/><use transform="matrix(0.05,0,0,0.05,14,0)" xlink:href="#aO"/><use transform="matrix(0.05,0,0,0.05,23,0)" xlink:href="#ad"/><use transform="matrix(0.05,0,0,0.05,33,0)" xlink:href="#af"/><use transform="matrix(0.05,0,0,0.05,38.95,0)" xlink:href="#am"/><use transform="matrix(0.05,0,0,0.05,42.900000000000006,0)" xlink:href="#ah"/><use transform="matrix(0.05,0,0,0.05,52.900000000000006,0)" xlink:href="#at"/><use transform="matrix(0.05,0,0,0.05,62.900000000000006,0)" xlink:href="#aw"/></g><path d="M101-251c68 0 85 55 85 127S166 4 100 4C33 4 14-52 14-124c0-73 17-127 87-127zm-1 229c47 0 54-49 54-102s-4-102-53-102c-51 0-55 48-55 102 0 53 5 102 54 102" id="aP"/><g id="C"><use transform="matrix(0.05,0,0,0.05,0,0)" xlink:href="#aI"/><use transform="matrix(0.05,0,0,0.05,5,0)" xlink:href="#aP"/><use transform="matrix(0.05,0,0,0.05,15,0)" xlink:href="#aK"/><use transform="matrix(0.05,0,0,0.05,20,0)" xlink:href="#aK"/><use transform="matrix(0.05,0,0,0.05,25,0)" xlink:href="#aJ"/><use transform="matrix(0.05,0,0,0.05,35,0)" xlink:href="#aL"/></g><path fill="#3a414a" d="M160-131c35 5 61 23 61 61C221 17 115-2 30 0v-248c76 3 177-17 177 60 0 33-19 50-47 57zm-97-11c50-1 110 9 110-42 0-47-63-36-110-37v79zm0 115c55-2 124 14 124-45 0-56-70-42-124-44v89" id="aQ"/><path fill="#3a414a" d="M141-36C126-15 110 5 73 4 37 3 15-17 15-53c-1-64 63-63 125-63 3-35-9-54-41-54-24 1-41 7-42 31l-33-3c5-37 33-52 76-52 45 0 72 20 72 64v82c-1 20 7 32 28 27v20c-31 9-61-2-59-35zM48-53c0 20 12 33 32 33 41-3 63-29 60-74-43 2-92-5-92 41" id="aR"/><path fill="#3a414a" d="M135-143c-3-34-86-38-87 0 15 53 115 12 119 90S17 21 10-45l28-5c4 36 97 45 98 0-10-56-113-15-118-90-4-57 82-63 122-42 12 7 21 19 24 35" id="aS"/><path fill="#3a414a" d="M100-194c63 0 86 42 84 106H49c0 40 14 67 53 68 26 1 43-12 49-29l28 8c-11 28-37 45-77 45C44 4 14-33 15-96c1-61 26-98 85-98zm52 81c6-60-76-77-97-28-3 7-6 17-6 28h103" id="aT"/><g id="D"><use transform="matrix(0.06172839506172839,0,0,0.06172839506172839,0,0)" xlink:href="#aQ"/><use transform="matrix(0.06172839506172839,0,0,0.06172839506172839,14.814814814814813,0)" xlink:href="#aR"/><use transform="matrix(0.06172839506172839,0,0,0.06172839506172839,27.160493827160494,0)" xlink:href="#aS"/><use transform="matrix(0.06172839506172839,0,0,0.06172839506172839,38.27160493827161,0)" xlink:href="#aT"/></g><path fill="#3a414a" d="M30-248c87 1 191-15 191 75 0 78-77 80-158 76V0H30v-248zm33 125c57 0 124 11 124-50 0-59-68-47-124-48v98" id="aU"/><path fill="#3a414a" d="M114-163C36-179 61-72 57 0H25l-1-190h30c1 12-1 29 2 39 6-27 23-49 58-41v29" id="aV"/><path fill="#3a414a" d="M96-169c-40 0-48 33-48 73s9 75 48 75c24 0 41-14 43-38l32 2c-6 37-31 61-74 61-59 0-76-41-82-99-10-93 101-131 147-64 4 7 5 14 7 22l-32 3c-4-21-16-35-41-35" id="aW"/><path fill="#3a414a" d="M24 0v-261h32V0H24" id="aX"/><g id="E"><use transform="matrix(0.06172839506172839,0,0,0.06172839506172839,0,0)" xlink:href="#aU"/><use transform="matrix(0.06172839506172839,0,0,0.06172839506172839,14.814814814814813,0)" xlink:href="#aR"/><use transform="matrix(0.06172839506172839,0,0,0.06172839506172839,27.160493827160494,0)" xlink:href="#aV"/><use transform="matrix(0.06172839506172839,0,0,0.06172839506172839,34.50617283950617,0)" xlink:href="#aW"/><use transform="matrix(0.06172839506172839,0,0,0.06172839506172839,45.61728395061728,0)" xlink:href="#aT"/><use transform="matrix(0.06172839506172839,0,0,0.06172839506172839,57.962962962962955,0)" xlink:href="#aX"/><use transform="matrix(0.06172839506172839,0,0,0.06172839506172839,62.8395061728395,0)" xlink:href="#aS"/></g><path fill="#3a414a" d="M210-169c-67 3-38 105-44 169h-31v-121c0-29-5-50-35-48C34-165 62-65 56 0H25l-1-190h30c1 10-1 24 2 32 10-44 99-50 107 0 11-21 27-35 58-36 85-2 47 119 55 194h-31v-121c0-29-5-49-35-48" id="aY"/><path fill="#3a414a" d="M179-190L93 31C79 59 56 82 12 73V49c39 6 53-20 64-50L1-190h34L92-34l54-156h33" id="aZ"/><g id="F"><use transform="matrix(0.06172839506172839,0,0,0.06172839506172839,0,0)" xlink:href="#aY"/><use transform="matrix(0.06172839506172839,0,0,0.06172839506172839,18.456790123456788,0)" xlink:href="#aR"/><use transform="matrix(0.06172839506172839,0,0,0.06172839506172839,30.80246913580247,0)" xlink:href="#aZ"/></g><path fill="#3a414a" d="M67-158c22-48 132-52 116 29L158 0h-32l25-140c3-38-53-32-70-12C52-117 51-52 38 0H6l36-190h30" id="ba"/><path fill="#3a414a" d="M30-147c31-64 166-65 159 27C183-49 158 1 86 4 9 8 1-88 30-147zM88-20c53 0 68-48 68-100 0-31-11-51-44-50-52 1-68 46-68 97 0 32 13 53 44 53" id="bb"/><path fill="#3a414a" d="M51-54c-9 22 5 41 31 30L79-1C43 14 10-4 19-52l22-115H19l5-23h22l19-43h21l-9 43h35l-4 23H73" id="bc"/><g id="G"><use transform="matrix(0.06172839506172839,0,0,0.06172839506172839,0,0)" xlink:href="#ba"/><use transform="matrix(0.06172839506172839,0,0,0.06172839506172839,12.345679012345679,0)" xlink:href="#bb"/><use transform="matrix(0.06172839506172839,0,0,0.06172839506172839,24.691358024691358,0)" xlink:href="#bc"/></g><path fill="#3a414a" d="M100-194c62-1 85 37 85 99 1 63-27 99-86 99S16-35 15-95c0-66 28-99 85-99zM99-20c44 1 53-31 53-75 0-43-8-75-51-75s-53 32-53 75 10 74 51 75" id="bd"/><path fill="#3a414a" d="M108 0H70L1-190h34L89-25l56-165h34" id="be"/><path fill="#3a414a" d="M115-194c55 1 70 41 70 98S169 2 115 4C84 4 66-9 55-30l1 105H24l-1-265h31l2 30c10-21 28-34 59-34zm-8 174c40 0 45-34 45-75s-6-73-45-74c-42 0-51 32-51 76 0 43 10 73 51 73" id="bf"/><g id="H"><use transform="matrix(0.06172839506172839,0,0,0.06172839506172839,0,0)" xlink:href="#bd"/><use transform="matrix(0.06172839506172839,0,0,0.06172839506172839,12.345679012345679,0)" xlink:href="#be"/><use transform="matrix(0.06172839506172839,0,0,0.06172839506172839,23.45679012345679,0)" xlink:href="#aT"/><use transform="matrix(0.06172839506172839,0,0,0.06172839506172839,35.80246913580247,0)" xlink:href="#aV"/><use transform="matrix(0.06172839506172839,0,0,0.06172839506172839,43.148148148148145,0)" xlink:href="#aX"/><use transform="matrix(0.06172839506172839,0,0,0.06172839506172839,48.02469135802469,0)" xlink:href="#aR"/><use transform="matrix(0.06172839506172839,0,0,0.06172839506172839,60.37037037037037,0)" xlink:href="#bf"/></g><path fill="#3a414a" d="M59-47c-2 24 18 29 38 22v24C64 9 27 4 27-40v-127H5v-23h24l9-43h21v43h35v23H59v120" id="bg"/><path fill="#3a414a" d="M106-169C34-169 62-67 57 0H25v-261h32l-1 103c12-21 28-36 61-36 89 0 53 116 60 194h-32v-121c2-32-8-49-39-48" id="bh"/><g id="I"><use transform="matrix(0.06172839506172839,0,0,0.06172839506172839,0,0)" xlink:href="#bd"/><use transform="matrix(0.06172839506172839,0,0,0.06172839506172839,12.345679012345679,0)" xlink:href="#bg"/><use transform="matrix(0.06172839506172839,0,0,0.06172839506172839,18.51851851851852,0)" xlink:href="#bh"/><use transform="matrix(0.06172839506172839,0,0,0.06172839506172839,30.864197530864196,0)" xlink:href="#aT"/><use transform="matrix(0.06172839506172839,0,0,0.06172839506172839,43.20987654320987,0)" xlink:href="#aV"/></g><g id="J"><use transform="matrix(0.06172839506172839,0,0,0.06172839506172839,0,0)" xlink:href="#aQ"/><use transform="matrix(0.06172839506172839,0,0,0.06172839506172839,14.814814814814813,0)" xlink:href="#aR"/><use transform="matrix(0.06172839506172839,0,0,0.06172839506172839,27.160493827160494,0)" xlink:href="#aS"/><use transform="matrix(0.06172839506172839,0,0,0.06172839506172839,38.27160493827161,0)" xlink:href="#aT"/></g><g id="K"><use transform="matrix(0.06172839506172839,0,0,0.06172839506172839,0,0)" xlink:href="#aU"/><use transform="matrix(0.06172839506172839,0,0,0.06172839506172839,14.814814814814813,0)" xlink:href="#aR"/><use transform="matrix(0.06172839506172839,0,0,0.06172839506172839,27.160493827160494,0)" xlink:href="#aV"/><use transform="matrix(0.06172839506172839,0,0,0.06172839506172839,34.50617283950617,0)" xlink:href="#aW"/><use transform="matrix(0.06172839506172839,0,0,0.06172839506172839,45.61728395061728,0)" xlink:href="#aT"/><use transform="matrix(0.06172839506172839,0,0,0.06172839506172839,57.962962962962955,0)" xlink:href="#aX"/><use transform="matrix(0.06172839506172839,0,0,0.06172839506172839,62.8395061728395,0)" xlink:href="#aS"/></g><g id="L"><use transform="matrix(0.05,0,0,0.05,0,0)" xlink:href="#aM"/><use transform="matrix(0.05,0,0,0.05,12,0)" xlink:href="#ai"/><use transform="matrix(0.05,0,0,0.05,17,0)" xlink:href="#af"/><use transform="matrix(0.05,0,0,0.05,22.95,0)" xlink:href="#ah"/><use transform="matrix(0.05,0,0,0.05,32.95,0)" xlink:href="#ai"/><use transform="matrix(0.05,0,0,0.05,37.95,0)" xlink:href="#ah"/></g><g id="M"><use transform="matrix(0.05,0,0,0.05,0,0)" xlink:href="#aq"/><use transform="matrix(0.05,0,0,0.05,12,0)" xlink:href="#ah"/><use transform="matrix(0.05,0,0,0.05,22,0)" xlink:href="#af"/><use transform="matrix(0.05,0,0,0.05,27.950000000000003,0)" xlink:href="#an"/><use transform="matrix(0.05,0,0,0.05,36.95,0)" xlink:href="#ad"/><use transform="matrix(0.05,0,0,0.05,46.95,0)" xlink:href="#am"/></g><path d="M80-196l47-18 7 23-49 13 32 44-20 13-27-46-27 45-21-12 33-44-49-13 8-23 47 19-2-53h23" id="bi"/><g id="N"><use transform="matrix(0.05,0,0,0.05,0,0)" xlink:href="#aI"/><use transform="matrix(0.05,0,0,0.05,5,0)" xlink:href="#aK"/><use transform="matrix(0.05,0,0,0.05,10,0)" xlink:href="#aK"/><use transform="matrix(0.05,0,0,0.05,15,0)" xlink:href="#bi"/><use transform="matrix(0.05,0,0,0.05,22,0)" xlink:href="#aL"/></g><path fill="#3a414a" d="M190 0L58-211 59 0H30v-248h39L202-35l-2-213h31V0h-41" id="bj"/><path fill="#3a414a" d="M117-194c89-4 53 116 60 194h-32v-121c0-31-8-49-39-48C34-167 62-67 57 0H25l-1-190h30c1 10-1 24 2 32 11-22 29-35 61-36" id="bk"/><path fill="#3a414a" d="M16-82v-28h88v28H16" id="bl"/><g id="O"><use transform="matrix(0.06172839506172839,0,0,0.06172839506172839,0,0)" xlink:href="#bj"/><use transform="matrix(0.06172839506172839,0,0,0.06172839506172839,15.987654320987653,0)" xlink:href="#bd"/><use transform="matrix(0.06172839506172839,0,0,0.06172839506172839,28.333333333333332,0)" xlink:href="#bk"/><use transform="matrix(0.06172839506172839,0,0,0.06172839506172839,40.67901234567901,0)" xlink:href="#bl"/><use transform="matrix(0.06172839506172839,0,0,0.06172839506172839,48.02469135802469,0)" xlink:href="#aQ"/><use transform="matrix(0.06172839506172839,0,0,0.06172839506172839,62.839506172839506,0)" xlink:href="#aR"/><use transform="matrix(0.06172839506172839,0,0,0.06172839506172839,75.18518518518519,0)" xlink:href="#aS"/><use transform="matrix(0.06172839506172839,0,0,0.06172839506172839,86.2962962962963,0)" xlink:href="#aT"/></g><g id="P"><use transform="matrix(0.06172839506172839,0,0,0.06172839506172839,0,0)" xlink:href="#aU"/><use transform="matrix(0.06172839506172839,0,0,0.06172839506172839,14.814814814814813,0)" xlink:href="#aR"/><use transform="matrix(0.06172839506172839,0,0,0.06172839506172839,27.160493827160494,0)" xlink:href="#aV"/><use transform="matrix(0.06172839506172839,0,0,0.06172839506172839,34.50617283950617,0)" xlink:href="#aW"/><use transform="matrix(0.06172839506172839,0,0,0.06172839506172839,45.61728395061728,0)" xlink:href="#aT"/><use transform="matrix(0.06172839506172839,0,0,0.06172839506172839,57.962962962962955,0)" xlink:href="#aX"/><use transform="matrix(0.06172839506172839,0,0,0.06172839506172839,62.8395061728395,0)" xlink:href="#aS"/></g><path fill="#3a414a" d="M248-111c6-24 9-61-24-58-72 9-57 108-77 169h-31l26-142c3-37-50-30-64-10C52-115 50-51 37 0H6l36-190h30c-1 10-6 24-4 32 13-43 101-52 105 5 13-22 29-41 61-41 90 0 28 129 23 194h-31" id="bm"/><path fill="#3a414a" d="M67 3c-93-2-31-127-26-193h32L48-50c-3 39 53 32 70 12 30-34 30-101 43-152h32L157 0h-30c1-10 6-24 4-33-14 20-29 37-64 36" id="bn"/><path fill="#3a414a" d="M55-144c13 50 104 24 104 88C159 21 15 23 1-39l26-10c6 40 102 42 102-4-13-50-104-23-104-87 0-71 143-71 148-8l-29 4c-5-35-85-37-89 0" id="bo"/><g id="Q"><use transform="matrix(0.06172839506172839,0,0,0.06172839506172839,0,0)" xlink:href="#bm"/><use transform="matrix(0.06172839506172839,0,0,0.06172839506172839,18.456790123456788,0)" xlink:href="#bn"/><use transform="matrix(0.06172839506172839,0,0,0.06172839506172839,30.80246913580247,0)" xlink:href="#bo"/><use transform="matrix(0.06172839506172839,0,0,0.06172839506172839,41.91358024691358,0)" xlink:href="#bc"/></g><g id="R"><use transform="matrix(0.06172839506172839,0,0,0.06172839506172839,0,0)" xlink:href="#aR"/><use transform="matrix(0.06172839506172839,0,0,0.06172839506172839,12.345679012345679,0)" xlink:href="#bg"/></g><g id="S"><use transform="matrix(0.06172839506172839,0,0,0.06172839506172839,0,0)" xlink:href="#aX"/><use transform="matrix(0.06172839506172839,0,0,0.06172839506172839,4.876543209876543,0)" xlink:href="#aT"/><use transform="matrix(0.06172839506172839,0,0,0.06172839506172839,17.22222222222222,0)" xlink:href="#aR"/><use transform="matrix(0.06172839506172839,0,0,0.06172839506172839,29.5679012345679,0)" xlink:href="#aS"/><use transform="matrix(0.06172839506172839,0,0,0.06172839506172839,40.67901234567901,0)" xlink:href="#bg"/></g><g id="T"><use transform="matrix(0.06172839506172839,0,0,0.06172839506172839,0,0)" xlink:href="#bd"/><use transform="matrix(0.06172839506172839,0,0,0.06172839506172839,12.345679012345679,0)" xlink:href="#bk"/><use transform="matrix(0.06172839506172839,0,0,0.06172839506172839,24.691358024691358,0)" xlink:href="#aT"/></g><g id="U"><use transform="matrix(0.06172839506172839,0,0,0.06172839506172839,0,0)" xlink:href="#aU"/><use transform="matrix(0.06172839506172839,0,0,0.06172839506172839,14.814814814814813,0)" xlink:href="#aR"/><use transform="matrix(0.06172839506172839,0,0,0.06172839506172839,27.160493827160494,0)" xlink:href="#aV"/><use transform="matrix(0.06172839506172839,0,0,0.06172839506172839,34.50617283950617,0)" xlink:href="#aW"/><use transform="matrix(0.06172839506172839,0,0,0.06172839506172839,45.61728395061728,0)" xlink:href="#aT"/><use transform="matrix(0.06172839506172839,0,0,0.06172839506172839,57.962962962962955,0)" xlink:href="#aX"/></g><g id="V"><use transform="matrix(0.05,0,0,0.05,0,0)" xlink:href="#aM"/><use transform="matrix(0.05,0,0,0.05,12,0)" xlink:href="#at"/><use transform="matrix(0.05,0,0,0.05,22,0)" xlink:href="#ah"/><use transform="matrix(0.05,0,0,0.05,32,0)" xlink:href="#ai"/><use transform="matrix(0.05,0,0,0.05,37,0)" xlink:href="#ao"/><use transform="matrix(0.05,0,0,0.05,40.95,0)" xlink:href="#ah"/><use transform="matrix(0.05,0,0,0.05,50.95,0)" xlink:href="#am"/></g><path d="M24-231v-30h32v30H24zM-9 49c24 4 33-6 33-30v-209h32V24c2 40-23 58-65 49V49" id="bp"/><g id="W"><use transform="matrix(0.05,0,0,0.05,0,0)" xlink:href="#aN"/><use transform="matrix(0.05,0,0,0.05,14,0)" xlink:href="#ae"/><use transform="matrix(0.05,0,0,0.05,24,0)" xlink:href="#bp"/><use transform="matrix(0.05,0,0,0.05,27.950000000000003,0)" xlink:href="#ad"/><use transform="matrix(0.05,0,0,0.05,37.95,0)" xlink:href="#an"/><use transform="matrix(0.05,0,0,0.05,46.95,0)" xlink:href="#ai"/></g><g id="X"><use transform="matrix(0.05,0,0,0.05,0,0)" xlink:href="#ax"/><use transform="matrix(0.05,0,0,0.05,12.950000000000001,0)" xlink:href="#al"/><use transform="matrix(0.05,0,0,0.05,22.950000000000003,0)" xlink:href="#ah"/><use transform="matrix(0.05,0,0,0.05,32.95,0)" xlink:href="#av"/></g><path d="M87 75C49 33 22-17 22-94c0-76 28-126 65-167h31c-38 41-64 92-64 168S80 34 118 75H87" id="bq"/><path d="M33-261c38 41 65 92 65 168S71 34 33 75H2C39 34 66-17 66-93S39-220 2-261h31" id="br"/><g id="Y"><use transform="matrix(0.05,0,0,0.05,0,0)" xlink:href="#bq"/><use transform="matrix(0.05,0,0,0.05,5.95,0)" xlink:href="#al"/><use transform="matrix(0.05,0,0,0.05,15.949999999999998,0)" xlink:href="#ap"/><use transform="matrix(0.05,0,0,0.05,25.950000000000003,0)" xlink:href="#am"/><use transform="matrix(0.05,0,0,0.05,29.899999999999995,0)" xlink:href="#au"/><use transform="matrix(0.05,0,0,0.05,38.9,0)" xlink:href="#br"/></g><g id="Z"><use transform="matrix(0.05,0,0,0.05,0,0)" xlink:href="#ac"/><use transform="matrix(0.05,0,0,0.05,14.950000000000001,0)" xlink:href="#ad"/><use transform="matrix(0.05,0,0,0.05,24.950000000000003,0)" xlink:href="#ac"/><use transform="matrix(0.05,0,0,0.05,39.900000000000006,0)" xlink:href="#ae"/><use transform="matrix(0.05,0,0,0.05,49.900000000000006,0)" xlink:href="#ad"/><use transform="matrix(0.05,0,0,0.05,59.900000000000006,0)" xlink:href="#af"/></g><g id="aa"><use transform="matrix(0.05,0,0,0.05,0,0)" xlink:href="#aB"/><use transform="matrix(0.05,0,0,0.05,16.3,0)" xlink:href="#ah"/><use transform="matrix(0.05,0,0,0.05,26.3,0)" xlink:href="#ai"/><use transform="matrix(0.05,0,0,0.05,31.3,0)" xlink:href="#ad"/><use transform="matrix(0.05,0,0,0.05,41.3,0)" xlink:href="#af"/></g><g id="ab"><use transform="matrix(0.05,0,0,0.05,0,0)" xlink:href="#ag"/><use transform="matrix(0.05,0,0,0.05,10.950000000000001,0)" xlink:href="#ad"/><use transform="matrix(0.05,0,0,0.05,20.950000000000003,0)" xlink:href="#ah"/><use transform="matrix(0.05,0,0,0.05,30.950000000000003,0)" xlink:href="#ai"/><use transform="matrix(0.05,0,0,0.05,35.95,0)" xlink:href="#aj"/><use transform="matrix(0.05,0,0,0.05,45.95,0)" xlink:href="#af"/><use transform="matrix(0.05,0,0,0.05,51.900000000000006,0)" xlink:href="#ad"/></g></defs></g></svg>